<svg id="Calque_1" data-name="Calque 1" xmlns="http://www.w3.org/2000/svg" viewBox="0 0 220.82 235.07"><defs><style>.cls-1{fill:#fff;}.cls-2{fill:none;}.cls-3{fill:#221f1f;}.cls-4{fill:#e94166;}.cls-5{fill:#ee7396;}.cls-6{fill:#6cc6d9;}.cls-7{fill:#8bd2ef;}.cls-8{font-size:51.46px;fill:#010101;font-family:Shink;}</style></defs><title>Plan de travail 1</title><path class="cls-1" d="M156.79,135.05a16,16,0,0,1,4.79,11.82c-.13,4.38-2.34,8.37-5,11.85a38.56,38.56,0,0,1-9.63,8.69,13.62,13.62,0,0,0-3.86,3.15,4,4,0,0,0-.59,1.17c-.48,1.55.1,3.11.33,4.78a21.56,21.56,0,0,1,0,4.75c-.26,3.27-.55,6.86-2.47,9.64-2.42,3.52-5.9,6.13-9.11,8.88a24.24,24.24,0,0,1-12.51,5.36,39,39,0,0,1-13.7-.77,8.56,8.56,0,0,1-4.57-2.08,7.11,7.11,0,0,1-1.52-2.89c-.14-.45-.25-.9-.37-1.35-.66-2.62-2-5.19-2-7.9a2.67,2.67,0,0,0-1.33-2.1,18,18,0,0,0-2.35-1.1c-1.92-.88-3.56-2.42-5.63-2.83a18.47,18.47,0,0,1-2.68-.43,2,2,0,0,1-1.48-2c.12,0,0,0,.12,0a82.27,82.27,0,0,0-1.46-13.91c-3.74-2.48-7.52-5-10.49-8.37a20.53,20.53,0,0,1-3.65-20.82,24.32,24.32,0,0,1,9.76-12.14,7,7,0,0,1-4.13.13,27.48,27.48,0,0,0-4.12-.79,7.42,7.42,0,0,1-2.9-.35,7,7,0,0,1-2.07-2.11c-1.31-1.62-3.07-1.36-2.3-3.63.6-1.79,1.22-3.65,1.87-5.45a54.63,54.63,0,0,1,5.66-11.44A51.53,51.53,0,0,1,87.86,85.53a52.29,52.29,0,0,1,29.3-5.73,58.8,58.8,0,0,1,12.19,2.37c2,.6,4.33,1.66,4.45,3.73.09,1.75-1.58,3.2-1.57,4.95a5.47,5.47,0,0,0,1.37,3L137,98.47a25.47,25.47,0,0,0,4.48,5.06,9.16,9.16,0,0,0,6.4,2.24,3.15,3.15,0,0,0,1.6,1.56,3.12,3.12,0,0,0,1.65-.13c2.14-.57,4.57-.64,6.71-1.21,3.64,7.16,4.63,15,5,23.06a5.37,5.37,0,0,1-1.65,4.12,8.18,8.18,0,0,1-2.54,1.59A4.28,4.28,0,0,1,156.79,135.05Z"/><path class="cls-2" d="M136.72,128.9a10.52,10.52,0,0,1,2.18.17c.58-.08,1.15-.16,1.74-.22Z"/><path class="cls-3" d="M149.86,142.88a15.07,15.07,0,0,1-8.16,13.44c-7.23,3.48-15.07.11-19.19-5.75a14.49,14.49,0,0,1-1.31-15.3c1.19-2.26,5.38-3,7.57-3.74,3.44-1.08,7.3-2.88,11.06-2.9a10.4,10.4,0,0,1,2.82.37c4.37,1.24,6.39,6.47,7,11A21.49,21.49,0,0,1,149.86,142.88Z"/><path class="cls-3" d="M102,148.9a13.65,13.65,0,0,1-12.42,6.89,19,19,0,0,1-6.13-1.08,9.89,9.89,0,0,1-4.55-3.66A15,15,0,0,1,77,139.29a14.29,14.29,0,0,1,5-8c2.89-2.17,6.31-2,9.69-.81,4.52,1.61,9,5.07,12,7.34A15.21,15.21,0,0,1,102,148.9Z"/><path class="cls-2" d="M75.57,149.32c-.68-.89-1.34-1.76-2-2.58A4.32,4.32,0,0,0,75.57,149.32Z"/><path class="cls-3" d="M117.7,160.82a1.25,1.25,0,0,1-.6,1.1,1.42,1.42,0,0,1-1.54-.43c-.4-.41-.67-.94-1.07-1.34a2.73,2.73,0,0,0-2.88-.57l-.15.07c-.65.31-1.15.88-1.79,1.19s-1.61.24-1.88-.42a1.81,1.81,0,0,1,.26-1.43c1-2,2-4,3.13-5.94.34-.62.92-2.35,1.52-2.7a.8.8,0,0,1,1,.18c1.68,1.44,3.35,7.95,3.73,9A3.6,3.6,0,0,1,117.7,160.82Z"/><path class="cls-1" d="M111,156.78a3.31,3.31,0,0,0-.3,1.19c0,.56.73,1.43.63,1.71s-1.37,1-1.69,1.16c-.65.31-1.61.24-1.88-.42a1.81,1.81,0,0,1,.26-1.43c1-2,2-4,3.13-5.94.34-.62.92-2.35,1.52-2.7a.8.8,0,0,1,1,.18,12.36,12.36,0,0,1-1.08,2.94c-.43.84-.72,1.71-1.18,2.55C111.28,156.26,111.15,156.52,111,156.78Z"/><path class="cls-4" d="M99.59,196.67a19.09,19.09,0,0,0-1.44-2.18c-.84-1.63-.13-3.79-1.14-5.32A3.84,3.84,0,0,0,92.68,188a14,14,0,0,0-4.08,2.52,8.12,8.12,0,0,1-4.31,2c.08-1.43-.06-3,0-4.4.17-2.82,0-6.64-3.64-7a8.44,8.44,0,0,0-5.13,1.65,27,27,0,0,0-4,3.11,5.12,5.12,0,0,0-1.5,2,2,2,0,0,0,.64,2.27c2.17,1.38,2.94,3.7,5,5.24l.3,1a25.75,25.75,0,0,0-4.47-.35c-2.16.1-6,1.16-5.93,4,0,1.21,1.18,2.43,1.75,3.43a34.86,34.86,0,0,1,2,4.09A3.53,3.53,0,0,0,72,209.14a3.61,3.61,0,0,0,2.58-.95c2-1.89,4.29-2.81,6.11-4.86A17.25,17.25,0,0,0,80,212a6.28,6.28,0,0,0,1.31,3.25,2.73,2.73,0,0,0,3.2.74c2.72-1.51,5.86-1.87,8.47-3.56,1.21-.78,2.5-2,2.19-3.4a3.8,3.8,0,0,0-1.24-1.77l-6.73-6.53a6.87,6.87,0,0,1,4.77-.43,10.82,10.82,0,0,0,5.14.26C98.77,200.1,100.19,198.3,99.59,196.67Z"/><path class="cls-5" d="M80.8,203.73a2.9,2.9,0,0,0-1.89.63,16.26,16.26,0,0,0-1.36,1.51,11.86,11.86,0,0,1-4,3l-1,.38a7.12,7.12,0,0,0,8.82,5.61A18.22,18.22,0,0,1,80.8,203.73Z"/><path class="cls-1" d="M73.06,207.81a2.88,2.88,0,0,1-1.49-1.63,18.21,18.21,0,0,0-.46-2,6,6,0,0,0-1.3-1.67,3.79,3.79,0,0,1-1.14-1.77c-.31-1.45,1.11-2.59,2.13-3.31l-3.19.23A4.05,4.05,0,0,0,65.74,200a3,3,0,0,0,.49,2.07c.37.62.85,1.18,1.22,1.81a26.92,26.92,0,0,1,1.14,2.64,4.45,4.45,0,0,0,1.8,2.18,3.7,3.7,0,0,0,2.48.23,10.57,10.57,0,0,0,2.36-.91A2.5,2.5,0,0,1,73.06,207.81Z"/><path class="cls-1" d="M82.87,182.49a4.09,4.09,0,0,0-3.45-1.16,10.49,10.49,0,0,0-3.77,1.9,35.37,35.37,0,0,0-3,1.92,5.09,5.09,0,0,0-2,2.89c-.47,2.28,1.58,3.27,3.14,4.41a6.28,6.28,0,0,1-1.29-2.27,3.11,3.11,0,0,1,.34-2.53c.81-1.16,2.42-1.39,3.58-2.21.65-.45,1.15-1.1,1.78-1.59a3.77,3.77,0,0,1,5.8,2.1A4,4,0,0,0,82.87,182.49Z"/><path class="cls-1" d="M97.72,195.46c-1-1.87-.17-4.45-1.53-6.08a3.81,3.81,0,0,0-4.11-.85,11.09,11.09,0,0,0-3.67,2.5c-.49,1.23.6.45,1.25.13,1-.5,2.37-1.53,3.49-1.64s1.85,1,2,2a12.58,12.58,0,0,0,1,4.17,3.46,3.46,0,0,1,.64,2.06c-.21,1.18-2,1.61-2.93,1.87a10.22,10.22,0,0,1-3.09.52,15.39,15.39,0,0,0,5.66.13,4.48,4.48,0,0,0,1.68-.54,2,2,0,0,0,1-1.39C99.27,197.29,98.24,196.44,97.72,195.46Z"/><path class="cls-1" d="M94.47,207.43A8.63,8.63,0,0,0,91.55,205a3.34,3.34,0,0,1,.14,5.59,8.33,8.33,0,0,1-2.71,1,6.39,6.39,0,0,0-2.64,1.18c-.66.56-1.17,1.42-2,1.56a1.87,1.87,0,0,1-1.62-.67,7.15,7.15,0,0,1-1.61-4.35l-.48,3.19a2.89,2.89,0,0,0,1.15,3.5,4.62,4.62,0,0,0,3.88.35,11.91,11.91,0,0,0,3.46-2,19.44,19.44,0,0,1,3.34-2.23,6,6,0,0,0,2-1.16A3,3,0,0,0,94.47,207.43Z"/><path class="cls-5" d="M95.11,207.72a5.74,5.74,0,0,0,3-4.81,2.25,2.25,0,0,0-.85-2.07,3.09,3.09,0,0,0-1.86-.19,15.57,15.57,0,0,1-4-.2c-.89-.16-2.5-1.07-3,.13s1.88,2.66,2.62,3.33Z"/><path class="cls-5" d="M70.75,189.8a1.87,1.87,0,0,0-1.09.61A10.11,10.11,0,0,0,67.55,194c-.22.68-.83,2.25-.27,2.89.77.89,3,0,4-.12l2.76-.38c.45-.06,2.29-.58,2.64-.34A20,20,0,0,1,70.75,189.8Z"/><path class="cls-5" d="M92.31,186.65a6.06,6.06,0,0,0-6.12-2.35l-1.4,0c0,2.54-.07,5.07-.1,7.61,0,.49.12,1.13.61,1.18a1,1,0,0,0,.68-.31l6.17-5a.89.89,0,0,0,.38-.48A.84.84,0,0,0,92.31,186.65Z"/><path class="cls-4" d="M76.19,127.79a4.25,4.25,0,0,0-5-.18,10.77,10.77,0,0,0-3.45,4.1,17.58,17.58,0,0,1-3,4.45,72.3,72.3,0,0,0,.3-9.31A9.32,9.32,0,0,0,64.6,124a3.36,3.36,0,0,0-1.86-2.12,4,4,0,0,0-3.36.56c-1,.6-1.89,1.41-3,1.93a11.6,11.6,0,0,1-3.68.94,14.72,14.72,0,0,0-3.72.81,4.6,4.6,0,0,0-2.66,2.58c-.7,2,.92,3.18,2.25,4.35a49,49,0,0,1,4.85,4.92,6,6,0,0,1,1.17,1.77c.29.79,0,1.19-.29,1.92l-.42,1.45a73.86,73.86,0,0,0-10.15-2.44,6.2,6.2,0,0,0-3.55.13c-1.79.8-2.47,3.11-2,5a13.05,13.05,0,0,0,2.9,5,8.49,8.49,0,0,0,1.5,6.52A5.47,5.47,0,0,0,48.71,159c3.84-1.67,6.1-5.18,8.2-8.81.38,0,.79-.07,1.11.14a79,79,0,0,0-.38,11.51,6.39,6.39,0,0,0,.65,3.16c1,1.67,3.25,2.12,5.18,1.89,3.37-.41,6.34-2.32,9.17-4.18a2.55,2.55,0,0,0,1.09-1.09,1.79,1.79,0,0,0-.39-1.73,7.11,7.11,0,0,0-1.42-1.2,12.6,12.6,0,0,1-5-11C67.56,140.2,70.46,132.68,76.19,127.79Z"/><path class="cls-1" d="M48.08,156.79a4.17,4.17,0,0,1-3.82-1,3.46,3.46,0,0,1-.69-2.46,9.88,9.88,0,0,1,.66-2.55,8.28,8.28,0,0,1-2.69-3.1,5.58,5.58,0,0,1-.35-4A4.27,4.27,0,0,1,44,140.79l-1.64,0a3.56,3.56,0,0,0-3.91,2.11,5.77,5.77,0,0,0,.22,4.67,17.59,17.59,0,0,0,2.74,4c-.06,2.16,0,4.59,1.58,6.08a5.3,5.3,0,0,0,5.7.63,13.84,13.84,0,0,0,4.55-3.91A9.77,9.77,0,0,1,48.08,156.79Z"/><path class="cls-1" d="M71.16,159.55c-.59.29-1.09.75-1.68,1.06-1,.5-2.1.56-3.08,1a9.25,9.25,0,0,0-1.89,1.28,6.23,6.23,0,0,1-2,1.15,2.37,2.37,0,0,1-2.18-.3c-.73-.58-.77-2.13-1-3a9.15,9.15,0,0,1-.53-3.91l-1,6.28a3.3,3.3,0,0,0,2.07,3.14,8.5,8.5,0,0,0,3.95.48,19.09,19.09,0,0,0,6.32-1.24A9.23,9.23,0,0,0,75,161.43c-1-.79-2.13-2.51-3.55-2Z"/><path class="cls-1" d="M63.48,123.11a5,5,0,0,0-5.34-.52c-2.33,1.24-4.32,2.94-6.9,3.48a9.88,9.88,0,0,0-3.44,1c-1,.65-1.64,2.1-1,3.08l2.76,3.37a5.43,5.43,0,0,1-.56-2.89,2.3,2.3,0,0,1,1.88-2c2.75-.23,5.46-.22,7.76-1.75,1.13-.75,2.25-1.76,3.61-1.75a2.74,2.74,0,0,1,2.56,3.09A4.87,4.87,0,0,0,63.48,123.11Z"/><path class="cls-1" d="M75.17,127.35a1.9,1.9,0,0,0-1.94-.46,8.28,8.28,0,0,0-4.17,2.53,24.79,24.79,0,0,0-2.87,4l-.86,3.24a27.77,27.77,0,0,1,3.63-4.8A8.06,8.06,0,0,1,71.31,130a3.3,3.3,0,0,1,2.92,0,3.41,3.41,0,0,0,1-1.12A1.46,1.46,0,0,0,75.17,127.35Z"/><path class="cls-5" d="M57.25,150c-.74-.14-1.36.54-1.81,1.15-1.55,2.13-3.11,4.25-4.66,6.37l-1.1,1.62a10.5,10.5,0,0,0,2.68,4.63c1.38,1.16,3.69,1.43,4.88.07a5.3,5.3,0,0,0,.9-3.45c.07-2.68.13-5.36.2-8C58.36,151.43,58.17,150.21,57.25,150Z"/><path class="cls-5" d="M54.66,139.73a5.73,5.73,0,0,0-1.74-2.38,31.68,31.68,0,0,0-5.32-4c-1.29-.77-3-1.45-4.21-.59l-.59,1.8a2.92,2.92,0,0,0-1,3.28,4.75,4.75,0,0,0,2.42,2.64,14.16,14.16,0,0,0,3.5,1.12l3.71.84a3.41,3.41,0,0,0,2.4,0A2.27,2.27,0,0,0,54.66,139.73Z"/><path class="cls-5" d="M70.35,126.66a2.59,2.59,0,0,0-1.13-1.23A15.13,15.13,0,0,0,66.45,124l-2.09.08q.27,5.48,1,10.91l4.21-5.94A2.84,2.84,0,0,0,70.35,126.66Z"/><path class="cls-4" d="M165.1,86.82c-.48-1.13-1.14-2.18-1.52-3.35-.25-.75-.38-1.53-.64-2.28a3.78,3.78,0,0,0-1.29-2,2,2,0,0,0-2.22-.11c-2.64,1.9-5.06,3.81-8.2,4.64.18-3.23.34-6.55-.71-9.61-.43-1.26-1.23-2.58-2.54-2.84a4.46,4.46,0,0,0-3,.89c-2,1.18-3.87,2.46-5.77,3.73a6.23,6.23,0,0,0-2.14,2,4,4,0,0,0,.11,3.67,9.08,9.08,0,0,0,2.5,2.85l2.67,2.62a29.49,29.49,0,0,0-6.11,1A5,5,0,0,0,133,90a3.37,3.37,0,0,0,.25,3.69c.94,1.53,1.89,3.06,2.83,4.6a5.52,5.52,0,0,0,1.71,2,3.68,3.68,0,0,0,3.52-.13,10,10,0,0,0,2.73-2.45,12.32,12.32,0,0,1,2.64-2.56,27.12,27.12,0,0,0-.49,6.1,8.57,8.57,0,0,0,.92,4.21,4.25,4.25,0,0,0,2.35,1.9c1.08.36,1.92-.19,2.91-.64,2.27-1,4.44-2.27,6.61-3.5a5.91,5.91,0,0,0,2.35-2,2,2,0,0,0-.48-2.72c-2.86-1.6-4.75-4.42-6.82-7a36.32,36.32,0,0,0,9,.47,4.21,4.21,0,0,0,1.5-.34,1.56,1.56,0,0,0,.9-1.17A7.71,7.71,0,0,0,165.1,86.82Z"/><path class="cls-5" d="M136.94,81.3a5.15,5.15,0,0,0-2.73,7.29l1.58-.81,6.87-1C140.44,85.32,138.12,83.71,136.94,81.3Z"/><path class="cls-5" d="M146.78,94.61A61.35,61.35,0,0,0,141,100l-.36-.27-.4,1.31A10.37,10.37,0,0,0,142,104.2a4.21,4.21,0,0,0,5.24.79C146.08,101.69,146.35,98.08,146.78,94.61Z"/><path class="cls-5" d="M164.25,92.56a2.41,2.41,0,0,0-1.57-.83,8.52,8.52,0,0,0-1.82,0,24.07,24.07,0,0,1-6.56-.49l.44,1.61A21,21,0,0,0,159,97.12a3.73,3.73,0,0,0,3.13,1,3.77,3.77,0,0,0,2.08-2.43C164.58,94.68,164.9,93.44,164.25,92.56Z"/><path class="cls-5" d="M159.38,78.4a9.08,9.08,0,0,0-7.17-3.6L151.37,76l-.27,8.14a1.56,1.56,0,0,0,1.41-.24c2.31-1.54,4.52-3.31,6.78-4.93.09-.07.19-.14.2-.26A.38.38,0,0,0,159.38,78.4Z"/><path class="cls-1" d="M139.77,99a2.27,2.27,0,0,1-1.44-.76,6.53,6.53,0,0,1-.74-2.36c-.49-1.67-2.45-2.19-2.94-3.79a2.43,2.43,0,0,1,.33-1.94,6.87,6.87,0,0,1,1.36-1.49l.16-.07a7.15,7.15,0,0,0-2.67.51,1.91,1.91,0,0,0-1.25,2,5.52,5.52,0,0,0,.91,2.37l2.27,4a6,6,0,0,0,1.94,2.35c1.18.71,3.62.44,4.2-1A9.94,9.94,0,0,1,139.77,99Z"/><path class="cls-2" d="M139.54,83.14l-.71-.88A2.31,2.31,0,0,0,139.54,83.14Z"/><path class="cls-1" d="M149,73.21a3.44,3.44,0,0,0-2.79-1.08,6.89,6.89,0,0,0-3.37,1.65l-4.67,3.5c-1.22.91-1.38,1.53-1.07,3a6.15,6.15,0,0,0,1.91,3,3.12,3.12,0,0,1-.79-2.14c.07-2.31,2.65-3.94,4.42-5a8.83,8.83,0,0,1,4.55-1.59,3.31,3.31,0,0,1,2.78,1.52A3.58,3.58,0,0,0,149,73.21Z"/><path class="cls-1" d="M165.37,87.62c-.52-1.1-1.35-2-1.86-3.15-.39-.86-.58-1.8-.91-2.7A4.19,4.19,0,0,0,161,79.52a2,2,0,0,0-2.58.37l-1.74,1.64a2.59,2.59,0,0,1,4.19.93c.36.9.19,2,.57,2.86a6.93,6.93,0,0,0,1.64,2,2.77,2.77,0,0,1,1,2.26A2.16,2.16,0,0,1,162.69,91a5.93,5.93,0,0,1-2.05.4,8.91,8.91,0,0,0,2.44.5,2.84,2.84,0,0,0,2.16-.87A3.24,3.24,0,0,0,165.37,87.62Z"/><path class="cls-1" d="M160.35,98.61c.31,1.22-.75,2.4-1.9,2.92s-2.46.65-3.56,1.25a12,12,0,0,0-2.13,1.7,5.37,5.37,0,0,1-2.32,1.36,2.24,2.24,0,0,1-2.39-.87l.24,1.37a3,3,0,0,0,2.92,1.18,9,9,0,0,0,3.07-1.25q2.79-1.59,5.59-3.17c.77-.44,1.63-1,1.8-1.85S161.08,99.33,160.35,98.61Z"/><path class="cls-4" d="M88.69,83.7a2.64,2.64,0,0,0-1.33-.35,8,8,0,0,0-4.92,1.72,31.66,31.66,0,0,0-3.88,3.63c-.39.39-1,.8-1.44.46a1.18,1.18,0,0,1-.28-1c.08-2.26.16-4.15.16-6.4a7.65,7.65,0,0,0-.7-3.58,3.55,3.55,0,0,0-2.89-2c-1.9,0-3.28,1.33-5,2.16a14.87,14.87,0,0,0-4.62,3,5.06,5.06,0,0,0-1.28,5.12,6.37,6.37,0,0,0,2.58,2.74,16,16,0,0,1,3.07,2.27l-6.37,1a3.71,3.71,0,0,0-1.28.37c-2.82,1.69,2.84,5.19,4,5.86a12.12,12.12,0,0,0,3.8,1.66,4.61,4.61,0,0,0,3.93-.86,15.23,15.23,0,0,1-2.36-3.44,5.07,5.07,0,0,1-.2-4,4.34,4.34,0,0,1,3.2-2.42,5.87,5.87,0,0,1,4,.82c.89.54,1.8,1.31,2.83,1.16a3.73,3.73,0,0,0,1.93-1.27,28.92,28.92,0,0,1,7.69-5.46A1.28,1.28,0,0,0,88.69,83.7Z"/><path class="cls-5" d="M62.59,85.48a8.26,8.26,0,0,0-3,7.9l2.56-1,6-.89A16,16,0,0,1,62.59,85.48Z"/><path class="cls-5" d="M82.2,80.92a7.09,7.09,0,0,0-3.34-.27,1.78,1.78,0,0,0-2.13,1.93,41.54,41.54,0,0,0,0,6.31l.72.67h.21l4.9-4.36a3.53,3.53,0,0,0,1.22-1.6A2.45,2.45,0,0,0,82.2,80.92Z"/><path class="cls-2" d="M67.72,90l-2.37-1.78A3.09,3.09,0,0,0,67.72,90Z"/><path class="cls-1" d="M75.65,78.73a4.07,4.07,0,0,0-2.84-2c-1.55-.19-3,.7-4.3,1.55C66.57,79.6,63.69,80.6,62.83,83c-1,2.86,1.55,6,4,7.22C66.3,89.37,65,88.08,65,87.05a5.1,5.1,0,0,1,1.43-3.91,13.23,13.23,0,0,1,3.43-2.54c1.2-.67,2.58-1.32,3.9-.94a5.55,5.55,0,0,1,2.72,2.49A6.54,6.54,0,0,0,75.65,78.73Z"/><path class="cls-6" d="M50.33,161.15a4.23,4.23,0,0,0-.86-1.84c-1.09-1-2.86-.12-4.29-.46s-2.23-1.8-2.68-3.17c-.27-.84-.56-1.81-1.37-2.15a2.76,2.76,0,0,0-1.43-.08c-2.82.39-6.56.85-9,2.43a64.09,64.09,0,0,0-6.2,4.43c-.44.37-2.36,1.73-2.25,2.33s2.35,1.61,2.87,1.92A35,35,0,0,0,38,169a18.47,18.47,0,0,0,6.59-.13c3.44-.8,6.56-3.06,10.09-3A7.1,7.1,0,0,1,50.33,161.15Z"/><path class="cls-7" d="M41.53,139.38c.48-1.7-.74-3.5-2.32-4.29A11.57,11.57,0,0,0,34,134.3a101.74,101.74,0,0,0-11.58.48,41.49,41.49,0,0,0-5.64,1.05c-1,.27-3.84.59-4.14,1.76-.5,1.9,3.83,4.93,5.09,5.94a38.18,38.18,0,0,0,14.72,7.3,37.24,37.24,0,0,0,4.06.77c.55.07,3.66,0,3.91.3a17.08,17.08,0,0,1-1.86-4.31,5.33,5.33,0,0,1,.11-4.39C39.49,141.81,41.09,140.91,41.53,139.38Z"/><path class="cls-4" d="M133.89,199.77c.43.22.9.36,1.31.6a2.76,2.76,0,0,1,1.24,1.71,4.21,4.21,0,0,0,1.77,2.74,4.77,4.77,0,0,0,3.52.92,9.83,9.83,0,0,1,1.07-.15,1.32,1.32,0,0,1,1,.35,4.93,4.93,0,0,0,4.2,1.21,12.69,12.69,0,0,0,4.1-1.62,19.16,19.16,0,0,0,3.58-2.3,6.37,6.37,0,0,0,2.17-3.57A11.39,11.39,0,0,1,159.7,196a4.68,4.68,0,0,0,.86-2.18,9,9,0,0,0-.17-1.45,2,2,0,0,1,.23-1.41c1.65-2.38.51-6-.65-8.62a5.52,5.52,0,0,0-1.65-2.29c-1.12-.83-2.61-.89-3.9-1.39s-2.17-1.28-3.32-1.78a3.33,3.33,0,0,0-3.55.24c-.55-.23-.8-1-1.09-1.55s-.48-1.08-.79-1.59c-.51-.86-2.11-2.06-2.89-.8a3.23,3.23,0,0,0-.3,1.72A68.68,68.68,0,0,1,141.42,186c-.49,3.14-2.48,6.08-4.47,8.52C136.29,195.37,132,198.79,133.89,199.77Z"/><path class="cls-5" d="M142.06,195.05a16.45,16.45,0,0,1-4.47,5.31c-.64.5-1.4,1.12-1.28,1.93a2,2,0,0,0,.57,1,8.23,8.23,0,0,0,3.87,2.31,1.74,1.74,0,0,0,1.92-.35,1.85,1.85,0,0,0,.24-1.09l.17-8.65Z"/><path class="cls-5" d="M159.79,192.31a2.85,2.85,0,0,0-1.84-.78,12.69,12.69,0,0,0-2,.11,18.8,18.8,0,0,1-5.08-.21l-.68.79a15.32,15.32,0,0,0,4.86,4.92,4,4,0,0,0,3.15,1,3.45,3.45,0,0,0,2.12-2.73A3.35,3.35,0,0,0,159.79,192.31Z"/><path class="cls-5" d="M152.73,177.17a5.89,5.89,0,0,0-2.33-.89h-1a2.17,2.17,0,0,0-2.36,1.42,6.28,6.28,0,0,0-.22,3c.07.92.15,1.85.23,2.78,0,.29.08.63.33.76a.88.88,0,0,0,.79-.13,24.33,24.33,0,0,0,4.58-3.65,3,3,0,0,0,.81-1A2,2,0,0,0,152.73,177.17Z"/><path class="cls-1" d="M157,198.75a6.27,6.27,0,0,0-2.89-2.36c.88,1.14,1.94,3.19.81,4.54a3.93,3.93,0,0,1-1.82,1.08,8.18,8.18,0,0,0-2,.79,13.32,13.32,0,0,0-1.86,1.82c-1.57,1.52-3.46.87-4.53-.89a7.86,7.86,0,0,0-1.58-2.29l1,3.48a2.4,2.4,0,0,0,1.15,2.74,3.83,3.83,0,0,0,3.13.17,9.56,9.56,0,0,0,2.74-1.67,17.92,17.92,0,0,1,2.63-1.87c1.12-.59,2.47-.93,3.22-2A3.35,3.35,0,0,0,157,198.75Z"/><path class="cls-1" d="M155.71,191.33l-.56-.12A1.66,1.66,0,0,0,155.71,191.33Z"/><path class="cls-1" d="M160.59,186.84a15.09,15.09,0,0,1-.78-3.2,7.72,7.72,0,0,0-.27-2.77,3,3,0,0,0-3-1.45,8.72,8.72,0,0,0-3.29,1.23,3.45,3.45,0,0,1,3.56,1.5,9.31,9.31,0,0,1,1.33,3.86,6.67,6.67,0,0,1-.07,3.63,2.64,2.64,0,0,1-2.36,1.69l2.57.52a2.42,2.42,0,0,0,2.47-1.76A5.64,5.64,0,0,0,160.59,186.84Z"/><path class="cls-4" d="M152.58,163.23c2.13-2.4,4.72-5.15,6-8.1.59-1.3,1.43-2.46,1.9-3.83a14,14,0,0,0,.72-4.71,24.17,24.17,0,0,0-1-6c-.25-.9-.52-1.8-.84-2.68-.07-.2-1.24-2.38-1.36-2.22,1.61-2.17,4.26-1.7,6.56-2a4.29,4.29,0,0,1,4.1,2.71,9.79,9.79,0,0,1,.45,5.18,29,29,0,0,0-.37,5.26,21.63,21.63,0,0,1,3.5-5.94,6.55,6.55,0,0,1,11.06.86c1.13,1.74,1.44,4,2.64,5.67a3.61,3.61,0,0,1-.65,4.47,7.12,7.12,0,0,1-4.46,1.8c-1.63.16-3.28,0-4.91.23-.57.07-1.24.27-1.36.82s.46,1.07,1,1.39c2.32,1.4,4.38,3,6.69,4.4a1.68,1.68,0,0,0,.69,1.29,11,11,0,0,1,1.18,1c.85,1,.73,2.42.44,3.67a5.42,5.42,0,0,1-1.29,2.73,5.16,5.16,0,0,1-4.32,1c-1.52-.19-3.11-.06-4.62-.3a29.13,29.13,0,0,0-7-.22,3.17,3.17,0,0,1-2.61-.5,3,3,0,0,1-.65-1.73c-.24-1.67-.64-3.61-.89-5.28L160,166.09a3.7,3.7,0,0,1-1.47,1.23,2.56,2.56,0,0,1-2.37-.53,9.8,9.8,0,0,1-1.68-1.89A5.08,5.08,0,0,0,152.58,163.23Z"/><path class="cls-1" d="M160.39,163.49c-3.95,2.28-4.95-.85-6.36-2.84l-1.91,2.27a4.61,4.61,0,0,0,1.36,1.8,6.79,6.79,0,0,0,2.59,1.55,3.82,3.82,0,0,0,3-.25A2.68,2.68,0,0,0,160.39,163.49Z"/><path class="cls-1" d="M184,164.2a2.72,2.72,0,0,0-2.13-1.89,1.85,1.85,0,0,1,.8,2.29,3,3,0,0,1-1.95,1.67,8.68,8.68,0,0,1-2.64.3l-7.16.08c-2.12,0-4.57-.1-5.84-1.79a4.08,4.08,0,0,0,1.56,3.8l.78.76c3.55-1,7.34-.17,10.93.7a5.47,5.47,0,0,0,3.55,0,4.33,4.33,0,0,0,2.08-3A5.32,5.32,0,0,0,184,164.2Z"/><path class="cls-1" d="M184.61,149.61a18.37,18.37,0,0,0-1.6-6,7.82,7.82,0,0,0-4.54-4.1,5,5,0,0,0-5.56,1.85,5.77,5.77,0,0,1,5.57.05,8.93,8.93,0,0,1,2.87,4,12.91,12.91,0,0,1,1.24,3.65,4.3,4.3,0,0,1-1,3.59l2-.15a1.57,1.57,0,0,0,1.09-1.19A4.57,4.57,0,0,0,184.61,149.61Z"/><path class="cls-1" d="M166.29,134.56a7.17,7.17,0,0,0-4.32-.82,19.12,19.12,0,0,0-4.33,1.1l2,2.61a11.76,11.76,0,0,1,8.9.76A4.4,4.4,0,0,0,166.29,134.56Z"/><path class="cls-7" d="M201.73,155.21a34.18,34.18,0,0,0-15.81-6.16,6.22,6.22,0,0,1-3.68,3.4,17.24,17.24,0,0,1-5.06.89,21.76,21.76,0,0,0-5.09.7l.2.27c1.3,1.79,3.11,2.55,4.8,3.83,6.85,5.21,16.81,3.62,24.32.7.71-.27,1.49-.67,1.67-1.4C203.3,156.54,202.48,155.75,201.73,155.21Z"/><path class="cls-6" d="M195.13,128.35a47.11,47.11,0,0,0-30.95,4.21c.55.43,1.12.86,1.67,1.3a6.4,6.4,0,0,1,1.78,1.85,6.3,6.3,0,0,1,.47,3.2c-.06,2.43-.25,4.9-.16,7.33,1.25.31,3.35-3.79,4.15-4.75a7.71,7.71,0,0,1,4.66-3c1.85-.25,2.35.63,3.56,1.72.91.82,2.76,2.32,4,1.83s2.88-3.13,3.77-4.19C188.86,137,194.73,128.26,195.13,128.35Z"/><path class="cls-6" d="M29.7,163.2l-1-.25c-3.3-.81,2.41-3.39,3-3.68a60.77,60.77,0,0,1,9.23-3.58c.64-.19,1.38-.48,1.52-1.13a1.25,1.25,0,0,0-.79-1.3,3.28,3.28,0,0,0-1.62-.17,27.65,27.65,0,0,0-15.43,6.24,4.12,4.12,0,0,0-1.8,2.75c-.07,1.82,2,2.92,3.72,3.43a56.61,56.61,0,0,0,12.75,2c1.86.11,3.83.44,5.67.46,2,0,4.26-.91,6.23-1.41,1-.27,1.94-.36,1.91-1.52-.09-3.31-6.5-1.49-8.24-1.11C39.92,164.93,34.59,164.32,29.7,163.2Z"/><path class="cls-7" d="M22.6,138.66q7.72.1,15.43.59c1.06.06,2.38,0,2.81-1a1.8,1.8,0,0,0-.73-2.08,5,5,0,0,0-2.26-.71,72.44,72.44,0,0,0-20.11,0c-1.35.19-2.87.53-3.57,1.71-.84,1.44,0,3.28,1.06,4.59A25.32,25.32,0,0,0,25.12,149a75.74,75.74,0,0,0,11.81,3.74,5.52,5.52,0,0,0,2.2.26,1.87,1.87,0,0,0,1.6-1.36l-.89-2.27a36.07,36.07,0,0,1-18.76-7.14c-.74-.56-1.53-1.35-1.33-2.25C20,138.87,21.46,138.64,22.6,138.66Z"/><path class="cls-7" d="M201.22,156.74a18.32,18.32,0,0,0-12.06-6.92,8.6,8.6,0,0,0-3.2.1.89.89,0,0,0-.61.37.67.67,0,0,0,.17.76,2,2,0,0,0,.72.4,25.74,25.74,0,0,1,6.54,3.88c.38.31.8.73.71,1.22s-.7.78-1.22.92c-4.35,1.2-9,1.88-13.36.87l2,2a28,28,0,0,0,19.47-1.09c.6-.25,1.26-.64,1.32-1.28A1.82,1.82,0,0,0,201.22,156.74Z"/><path class="cls-6" d="M193.1,127a4.11,4.11,0,0,0-1.69-.55,33,33,0,0,0-12.46.75,88.44,88.44,0,0,0-11.9,4c-.7.28-1.51.68-1.64,1.42a1.56,1.56,0,0,0,1.2,1.6,4.53,4.53,0,0,0,2.16-.1q7.29-1.52,14.68-2.44a2,2,0,0,1,1.85.39c.5.61.14,1.5-.25,2.17a32,32,0,0,1-4.14,5.61l2.51,3.16,10-13.66a2.19,2.19,0,0,0,.43-.81A1.54,1.54,0,0,0,193.1,127Z"/><path class="cls-1" d="M81.93,166.52a11.07,11.07,0,0,0-3.14-1.34l-4.42-3.54c-.57,3-3.5,5.05-6.49,5.61s-6-.06-9-.6-6.11-1-9-.11a10.27,10.27,0,0,0,3.33,20.09,13.41,13.41,0,0,0,7.38,14.53,4.6,4.6,0,0,0,3.72.3c1.7-.8,2.13-3,2.58-4.78,1.18-4.8,3.92-9.05,6.92-13s6.31-7.63,8.89-11.83a5.12,5.12,0,0,0,.94-2.51A3.61,3.61,0,0,0,81.93,166.52Z"/><path class="cls-1" d="M52.81,86.81c-1.54-3.54-1.88-7.67-4.31-10.66a9.61,9.61,0,0,0-11.39-2.48,9.62,9.62,0,0,0-4.9,10.57c.21.88.53,1.89,0,2.6s-1.67.65-2.59.65a8.24,8.24,0,0,0-6.23,13.6c3.23,3.77,8.88,3.85,13.81,4.44a46.76,46.76,0,0,1,25.19,11.31,31.68,31.68,0,0,1,6-12.23l1.78-3.4C63.3,97.8,55.88,93.86,52.81,86.81Z"/><path class="cls-1" d="M179.58,170.75c-2.62-1.43-5.76-1.49-8.74-1.23s-6,.79-8.92.41a14.77,14.77,0,0,1-10.38-6.55,67.92,67.92,0,0,0-6.84,5.31,3.22,3.22,0,0,0-1.21,1.92,3.37,3.37,0,0,0,1,2.22l3.27,4.18a4.64,4.64,0,0,1,3.76-.28c1.25.36,2.41,1,3.66,1.34,1.42.42,3.08.56,4,1.72s1.4,3.84,1.72,5.2a9.35,9.35,0,0,1,.18,3.25c0,.38-.94,2.7-.86,2.84a5.83,5.83,0,0,1-1.15,7.34,8.29,8.29,0,0,0-1.44,1.26c-2.11,2.81,3.19,3.68,4.9,3.73a10.22,10.22,0,0,0,9.67-14.61,10.24,10.24,0,0,0,11.33-5.69C185.47,178.78,183.75,173,179.58,170.75Z"/><path class="cls-1" d="M200.83,102.32c-3.94,5.71-11.94,3.37-17.77,4.15-.43.06-.86.12-1.28.2a38.52,38.52,0,0,0-17.49,7.73c-.94.75-2.12,1.6-3.25,1.17a3.27,3.27,0,0,1-1.62-2.34A39.11,39.11,0,0,1,157.9,105l1.31-1.64a2.39,2.39,0,0,0,2-1.59c.36-.83.46-1.73.77-2.56a10.76,10.76,0,0,1,1.63-2.59c1.59-2,2.21-4.14,4.26-5.71,5.08-3.88,4.63-12.35,9.71-16.24,3.5-2.68,8.93-2.07,12.06,1a12.52,12.52,0,0,1,3,12.3c0,.14-.1.27-.16.4a8.92,8.92,0,0,1,8.42,13.93Z"/><path class="cls-1" d="M67.31,139.58l0-.08c-.88-1.46-3.34-2-4.86-2.14-2.35-.26-4.93-.1-6.74,1.41a6.34,6.34,0,0,0-1.14,7.8,8.54,8.54,0,0,0,7.17,4,4.75,4.75,0,0,0,3.51-1.08c1.24-1.21,1.23-3.07,1.47-4.66C66.9,143.39,68,140.94,67.31,139.58Z"/><path class="cls-1" d="M84.34,193.69c-2.78-1.24-6.32-.67-6.88,3-.23,1.56-.44,3.27.37,4.63a4.6,4.6,0,0,0,4,2c2.21,0,5.08-1.53,5.72-3.82C88.31,196.86,86.58,194.69,84.34,193.69Z"/><path class="cls-1" d="M148.94,187.41c-1.18-2-3.69-2.78-6-2.7l-.63,1.51a8,8,0,0,1-1.64,4.94,4.56,4.56,0,1,0,8.26-3.75Z"/><path class="cls-1" d="M168.81,149.27c-2.24-2.19-6-2.28-7.63.49-1.34,2.27-1.52,5.6.53,7.53a4.93,4.93,0,0,0,3.86,1.25,5.43,5.43,0,0,0,3.24-9.27Z"/><path class="cls-1" d="M76.67,89.51a6.8,6.8,0,0,0-5,.81,5.16,5.16,0,0,0-2.41,4.33,4.18,4.18,0,0,0,2.91,3.87l6.87-7.1C78.89,90.34,77.73,89.73,76.67,89.51Z"/><path class="cls-1" d="M153,86.36c-3.55-5.22-12.22.74-7.71,5.75a5.09,5.09,0,0,0,6.57.71A4.9,4.9,0,0,0,153,86.36Z"/><path class="cls-3" d="M77.62,130.72a8,8,0,0,0-2.07,1.69h0a.49.49,0,0,0,.64.73c1.46-.86,3.26-1.82,3.8-1.4l-.63.71c-1.72,1.94-3.44,3.66-4.2,6.33a14.83,14.83,0,0,0,6.23,16.28,16,16,0,0,0,18.11-.77,17.1,17.1,0,0,0,5.38-7.21,14.33,14.33,0,0,0,1.07-4.47c.08-1.09-.35-2.36.15-3.39s1.72-1.55,2.52-2.27c1.35-1.21,2.8-2.24,2.55-4.22a.74.74,0,0,0-1.3-.34c-4.7,7.45-11.84-.63-16.84-3.07a14.66,14.66,0,0,0-10.85-.71A24.33,24.33,0,0,0,77.62,130.72Zm21.14,6.22c1.16.66,2.88,1,3.67,2.26,1,1.53.33,4.44-.18,6.06a13,13,0,0,1-18.45,7.52,12.17,12.17,0,0,1-6.22-12.3,10.68,10.68,0,0,1,8.08-8.94C91.22,130.42,94.41,134.47,98.76,136.94Z"/><path class="cls-3" d="M118.68,134.9l.06.12c.48,1-.63,2.61-.82,3.73a18.28,18.28,0,0,0,.69,8.56,17.9,17.9,0,0,0,11.82,11.82c10.34,2.92,21.4-5.07,21.35-16a16.58,16.58,0,0,0-2.57-8.88,20.88,20.88,0,0,0-1.42-2,34.42,34.42,0,0,1,5.54,4.88c.31.32.78-.09.67-.46-1.66-5.61-8.59-9.15-14.1-9.45-3.67-.2-7,1-10.3,2.48a32.18,32.18,0,0,1-6,2.24c-2.74.6-4.77-.06-7.38-.59a.72.72,0,0,0-.66,1.15C116.29,133.61,118.05,133.81,118.68,134.9Zm2.53,3.23c.18-2,1.78-2.75,3.46-3.26.73-.23,1.47-.41,2.12-.63,3-1,5.75-2.73,8.86-3.47a12.19,12.19,0,0,1,7.2.17c2,.82,3.54,3.51,4.46,5.39a14.69,14.69,0,0,1,1.49,8.24,14.34,14.34,0,0,1-10.4,11.73,14.19,14.19,0,0,1-15-5.84,15.51,15.51,0,0,1-2.37-7.94A33.87,33.87,0,0,1,121.21,138.13Z"/><path class="cls-3" d="M107.28,158.8c-.55,1.25-1.68,2.84-1.57,4.26.22,2.79,3.52,0,4.53-.72a29.12,29.12,0,0,0,2.75-2,19.32,19.32,0,0,0,1.88,1.85,18.84,18.84,0,0,0,2.83,2.28.84.84,0,0,0,1-.07A.52.52,0,0,0,119,164c.15-3.27-1.63-7-2.67-10-.53-1.58-1-5.32-3.32-5.17-2.1.13-3,4.06-3.71,5.53S108,157.3,107.28,158.8Zm5.13-5.76a1.18,1.18,0,0,1,.52-.25c1.74-.36,3.79,6.86,2.37,7.31-.56.18-1-.4-1.38-.89s-.88-1-1.42-.78-2.33,2.14-3.19,1.42c-1-.86.75-2.67,1.08-3.42C110.91,155.26,111.34,153.84,112.41,153Z"/><path class="cls-3" d="M83.56,199.46a1.95,1.95,0,0,0-1.62-3.06,1.87,1.87,0,0,0-1.69,1.27A1.76,1.76,0,0,0,81.4,200l.17.11a1.75,1.75,0,0,0,.28.13,1.23,1.23,0,0,0,.71,0A1.81,1.81,0,0,0,83.56,199.46Z"/><path class="cls-3" d="M146.77,88.78a1.78,1.78,0,0,0,1.16,2.29l.17.11a1.35,1.35,0,0,0,1,.14,1.86,1.86,0,0,0,1-.74,2,2,0,0,0,.12-2,1.93,1.93,0,0,0-1.74-1A1.88,1.88,0,0,0,146.77,88.78Z"/><path class="cls-3" d="M146.16,190.7a1.95,1.95,0,0,0-1.62-3.07,1.91,1.91,0,0,0-1.69,1.27,1.77,1.77,0,0,0,1.16,2.28l.17.11a1.43,1.43,0,0,0,.28.13,1.28,1.28,0,0,0,.7,0A1.82,1.82,0,0,0,146.16,190.7Z"/><path class="cls-3" d="M166,153.75a1.37,1.37,0,0,0-1-2.33,1.55,1.55,0,0,0-1,.41l-.38.32a1.37,1.37,0,0,0,1,2.33,1.61,1.61,0,0,0,1-.42Z"/><path class="cls-3" d="M62.65,145.56a2,2,0,0,0,.76-1.93,2.84,2.84,0,0,0-.7-1.38,1.74,1.74,0,0,0-2.43-.44,2.22,2.22,0,0,0-.45.52,2.43,2.43,0,0,0-.38,1.81A2.28,2.28,0,0,0,62.65,145.56Z"/><path class="cls-3" d="M204.59,156.39c-.76-1.26-2.71-2.4-4-3.18-1.87-1.15-3.86-1.9-5.8-2.88a34.24,34.24,0,0,0-5.6-1.65,23.59,23.59,0,0,0-2.45-.47,12.54,12.54,0,0,0-.91-2.88c-.81-1.83.63-2.7,1.72-4s2.17-2.79,3.28-4.17c2.12-2.63,4.29-5.24,6.29-8a1.54,1.54,0,0,0-.87-2.26,49.69,49.69,0,0,0-22.4.12,48,48,0,0,0-5.39,1.67c-.83.32-2.57,1.41-3.49,1-1.34-.57-1.1-3.38-1.24-4.52-.2-1.53-.41-3.06-.67-4.58-.51-3.12,1.63-3.78,3.77-5.43a29.34,29.34,0,0,1,4.36-3.08,38.1,38.1,0,0,1,9.62-3.54,24.51,24.51,0,0,1,4.11,0c1.92,0,3.84,0,5.76-.17,4.51-.34,9.33-1.68,12.11-5.54a10.18,10.18,0,0,0-.43-12,11.86,11.86,0,0,0-8.63-4.48,10.92,10.92,0,0,0,.39-1.52,11.44,11.44,0,0,0-6.86-12.43,11.32,11.32,0,0,0-9.28.61,13,13,0,0,0-6.28,7.68c-.29.89-.54,1.78-.81,2.67a20.13,20.13,0,0,1-1.65,4.21c-.37.65-1,2.28-2,1.66-.47-.28-.4-.92-.59-1.37-.24-.61-.71-1.12-1-1.73a14,14,0,0,1-.51-4,4.94,4.94,0,0,0-1.68-3.11,10.24,10.24,0,0,0-2.93-1.58A21.27,21.27,0,0,1,158,75.73a8,8,0,0,0-2.51-1.16c-.87-.23-1.8-.06-2.65-.27-1.47-.36-2.05-2.09-3.19-2.91a4.62,4.62,0,0,0-3.32-.88,7.5,7.5,0,0,0-2.74,1.22l-4.87,3a6.48,6.48,0,0,0-3,3.19,16.45,16.45,0,0,1-.51,1.86,2.6,2.6,0,0,1-2.2,1.45c-.82,0-1.54-.63-2.32-.88s-1.37-.43-2.06-.62c-1.37-.38-2.77-.7-4.17-1a53.07,53.07,0,0,0-8.43-1,55.4,55.4,0,0,0-15.55,1.65c-1.28.32-2.56.69-3.81,1.1a32.83,32.83,0,0,0-4.06,1.51A6.91,6.91,0,0,1,88,82.9a10.84,10.84,0,0,1-3.61-2.12,8.22,8.22,0,0,0-3.83-1.62c-.65-.07-2.93-.39-3,.79a4.8,4.8,0,0,0-3.74-4.7c-2.15-.27-4.15,1.22-6,2.11a14.41,14.41,0,0,0-4.25,3.17c-1,1.14-2.11,2.39-2.06,4-1.23,0-2.19,1.56-2.7,2.53a6.54,6.54,0,0,0-.59,1.71,7.73,7.73,0,0,1-.29,1.62.69.69,0,0,1-1.13.29A7.23,7.23,0,0,1,55,87.9a25.64,25.64,0,0,1-1.36-3.25c-.93-2.87-1.59-5.83-3.22-8.41a11.6,11.6,0,0,0-13.58-4.68,11.46,11.46,0,0,0-7,12.35,9,9,0,0,0,.38,1.53,11.79,11.79,0,0,0-8.69,4.37,10.19,10.19,0,0,0-.58,12c2.74,3.9,7.54,5.29,12.05,5.69,2.78.24,5.58.15,8.37.39,4,.34,7.63,2.08,11.14,3.87a40.16,40.16,0,0,1,6.35,4c1.63,1.28,3.31,4.23.28,5-1.78.43-2.64,1.69-4.12,2.52-2.07,1.15-4.72.48-6.92,1.34a5.22,5.22,0,0,0-2.38,2c-.64.95-.43,2.26-.91,3.08-.61,1-2,1.35-3,1.87a4,4,0,0,0-1.37.92c-.13.17-.61,1.44-.2,1.53a38.11,38.11,0,0,0-6.16-.5,62.84,62.84,0,0,0-15.84,1.24c-2.25.48-5.2.79-7,2.34a1.18,1.18,0,0,0-.4.86,1.15,1.15,0,0,0,0,.66c.93,2.52,3.32,4.66,5.31,6.39a34.76,34.76,0,0,0,6.89,4.69,37.2,37.2,0,0,0,7.78,3c.81.2,1.7.44,2.63.63-1.19.43-2.33.92-3.37,1.39a36.23,36.23,0,0,0-10.27,7.1,1.8,1.8,0,0,0,.42,2.77c7.24,4.59,15,5,23.28,5.46a12.34,12.34,0,0,0-.91,11.87c1.93,4.12,5.43,5.36,9.32,6.94-.67,4.09-.26,8.09,2.72,11.28,1.31,1.42,3.45,3,5.43,3.3,1,.14,2,0,3,.09a5.86,5.86,0,0,1,2.8.6A4.68,4.68,0,0,1,67.27,206c.84,2,1.5,3.71,3.38,4.92A10,10,0,0,1,73,212.77a14.07,14.07,0,0,0,1.51,2c1.13.94,2.7,1.06,4,1.56.61.23,1.16.63,1.79.87a8.94,8.94,0,0,0,4.58.48,18.18,18.18,0,0,0,7-3.19c1.78-1.18,4.66-2.39,5.06-4.69a7.61,7.61,0,0,1,.62-2.65,8.59,8.59,0,0,1,2.37-2.47c.88-.49,1.9.24,2.76.48a39.92,39.92,0,0,0,8.73,1.58A33.59,33.59,0,0,0,127,203.82a43,43,0,0,0,5.31-3.13c.36.34.53.7,1.06.86s.82.16,1.2.33c1.1.46,1.54,1.73,2.23,2.69a6.26,6.26,0,0,0,5.14,2.37,6.52,6.52,0,0,1,1.25,0c.67.11,1,.63,1.52,1a3.55,3.55,0,0,0,1.95.57,9.42,9.42,0,0,0,4.35-1.54c1.51-.84,4.13-1.79,5.82-3.23l.12.09c5.6,3.91,14.06.59,16.39-5.52a11.38,11.38,0,0,0,.38-7c9,.34,15.26-11,9.51-18.62a12.48,12.48,0,0,0-1.11-1.26,6.73,6.73,0,0,0,1.47-1.08,7,7,0,0,0,1.32-7.69c.12.28,2.23.39,2.55.43a22.68,22.68,0,0,0,2.85.15,27.11,27.11,0,0,0,5.31-.55,22.22,22.22,0,0,0,5.35-1.87,26.12,26.12,0,0,0,2.47-1.4C205.08,158.39,205.18,157.35,204.59,156.39ZM190,151.94a2.09,2.09,0,0,1,.63,0c.83.07,2.54.19,2,1.41a3.18,3.18,0,0,1-2,1.51,6.8,6.8,0,0,1-2.21-.13c-1-.13-2.11-.25-.84-1.16.41-.3.85-.57,1.26-.88A3.35,3.35,0,0,1,190,151.94Zm-3.63-.3a1.85,1.85,0,0,1,.46-.36c.39-.24.9-.44,1-.16s-.75.83-.92,1c-.35.25-2.65,2.2-2.9,1.94s1.08-.82,1.29-1A8,8,0,0,0,186.4,151.64Zm-1.93-11.28a.77.77,0,0,1-.63.44c-.59,0-1.2-.91-1.63-1.32a7.4,7.4,0,0,0-2-1.44,6.12,6.12,0,0,0-2.4-.64c-.85-.05-1.74.39-2.53.3a.52.52,0,0,1-.47-.37c-.09-.47,1.8-.71,2.18-.82a6.33,6.33,0,0,1,3.35-.45,6,6,0,0,1,1.42.86c.57.33,1.21.57,1.8.87C184.65,138.33,185.17,139.26,184.47,140.36Zm.46-10.63c.08-.16.6-.66.6-.79a.87.87,0,0,1,.31-.18,6.26,6.26,0,0,1,2.24,0c.23,0,2,.06,1.14.67a6.22,6.22,0,0,1-1.59.45,10.46,10.46,0,0,1-2.89.85A1.61,1.61,0,0,1,184.93,129.73Zm3,3.59c.41-.13,1.17-.44,1.59-.26.85.36-.52,1.51-.84,1.91-.53.69-1.27,1.91-2.24,2-.55.06-4.21-1.27-3.5-2.16.35-.44,1.22-.4,1.71-.54C185.78,134,186.87,133.66,188,133.32Zm-8.69-2.43a2.48,2.48,0,0,1,1.3-1.72c.56-.26,1.77-.71,2.33-.24.81.68-.78,2.55-1.37,2.94a6.78,6.78,0,0,1-1.79.62c-.27.09-.62.14-.8-.16S179.15,131.24,179.27,130.89Zm-7.9,2.46c0-.21,0-.4.06-.59a2.17,2.17,0,0,1,1.52-2.15c.91-.29,1.84-.54,2.77-.75.45-.1,1.47-.53,1.83-.05s-.17,1.11-.28,1.46a17.09,17.09,0,0,0-.61,2.23c-.88.3-1.77.6-2.64.91-.46.17-1,.28-1.4.47-.24.11-.55.37-.82.33C171.11,135.1,171.33,133.8,171.37,133.35Zm-1.07,5,0,0a1.56,1.56,0,0,1,1.66.26c.81,1-.94,2.22-1.43,2.91-.22.31-.46.65-.69,1,.11-.84.2-1.67.26-2.46C170.18,139.56,169.94,138.69,170.3,138.32Zm1.23,6.19a9.79,9.79,0,0,1,2.88-3.68c3.63-2.61,6.56-.11,8.14,3.31.57,1.22,1,2.48,1.48,3.73a3.13,3.13,0,0,1-.07,2.93c-.47.81-1.69.88-2.5,1-2.31.38-4.66.46-7,.86-.54.09-2,.82-2.44.4-.81-.84,1.81-.93,2.24-1a11,11,0,0,0,3.72-1,.38.38,0,0,0-.14-.68,10,10,0,0,0-3.49.22c-.87.16-1.83.24-2.72.47a6.29,6.29,0,0,0-.29-.79,21.54,21.54,0,0,0,3.13-1,16.45,16.45,0,0,0,4.06-1.93.47.47,0,0,0-.31-.84,15.82,15.82,0,0,0-4.06,1.32,20.78,20.78,0,0,0-3.29,1.59,3.91,3.91,0,0,0-.3-.41c.66-.32,1.29-.71,1.91-1.09a6.17,6.17,0,0,0,2.16-1.72c.21-.33,0-.85-.41-.79a5.92,5.92,0,0,0-2.41,1.12,18,18,0,0,0-2.15,1.51l0,0C170.65,147.07,170.9,145.77,171.53,144.51Zm10.38,12.66c-.14,1.29-1,1.77-2.09,1-.82-.6-1.73-1.09-2.6-1.62-.31-.18-1.56-.77-1.52-1.2.05-.61,3.52-.72,4.1-.79C181.93,154.3,182.12,155.21,181.91,157.17Zm-23,5a10.77,10.77,0,0,0,2.17-2.39c.29-.36.77-1.4,1.29-1.13s.08,1-.1,1.34a19.25,19.25,0,0,1-1.25,2c-.81,1.25-1.86,4.19-3.72,3.81-.46-.1-3.54-2.41-3.33-2.59a25.7,25.7,0,0,0,3.35-3.41,22.41,22.41,0,0,0,1.42-1.94c.25-.38.34-.95.77-1.21.63-.37,1.12.22,1.11.85s-.49,1-.81,1.38a10.17,10.17,0,0,0-1.85,2.58A.63.63,0,0,0,158.86,162.15Zm1.9,4.26c.44-.59.7-1.46,1.29-1.94.27-.22.46-.3.6-.28.46.08.38,1.19.52,1.79s.6,1.46.23,1.92-1.68.13-2.24,0C160.16,167.54,160.23,167.12,160.76,166.41Zm.77-12.8a4.37,4.37,0,0,1,.85-3.35,3.74,3.74,0,0,1,6.25.2c1.51,2.19.83,5.55-1.91,6.43A4.12,4.12,0,0,1,161.53,153.61Zm6.13-21.09c.36-.16,1-.49,1.42-.25l.06,0c.32.26.56,2.59.11,2.73s-.72-.54-.92-.71C167.62,133.71,166.07,133.24,167.66,132.52Zm-.26,3.95c1.16,1.59.6,4,.33,5.82-.16,1.07-.49,2.12-.63,3.19,0,.2.07.69-.17.79-.45.19-.28-.4-.26-.59.06-.58.15-1.14.18-1.72a10.79,10.79,0,0,0-.33-3.49.5.5,0,0,0-.91,0,13,13,0,0,0-.89,5.63,5.29,5.29,0,0,0-.56.05,18.69,18.69,0,0,0-.93-6.24c-.09-.23-.47-.25-.51,0a17.29,17.29,0,0,0,.09,4.6c.05.47.35,1.44,0,1.87s-.55.29-.68-.13a7.3,7.3,0,0,1,0-1.62,21.16,21.16,0,0,0-.45-3c-.19-.8-.48-1.6-.75-2.38-.36-1.09-1.76-2.58-.41-3.42a8.05,8.05,0,0,1,3.32-1A3.85,3.85,0,0,1,167.4,136.47Zm-1.85-40c.07-.16.14-.33.22-.49.48-1,1.31-1.47,2.07-2.23a28,28,0,0,0,2.43-2.78,17.68,17.68,0,0,0,3.14-5.84c1.28-4.77,3.12-9.94,8.85-10.31A8.31,8.31,0,0,1,191,83.56a8.09,8.09,0,0,1-3,5.58c-1.53,1.26-3.66,1.49-5,2.86a.92.92,0,0,0,.13,1.28c2.28,1.45,5.38-.26,7.22-1.79a11.68,11.68,0,0,0,2-2.15,14.36,14.36,0,0,1,4.95,1.23,7.76,7.76,0,0,1,3.87,4.86c1.06,4.24-1.92,7.51-5.73,8.81-4.41,1.51-10,.66-14.89,1.3a7.43,7.43,0,0,0-1.91.33,12.89,12.89,0,0,0-3.37,1.25c-1.55.56-3.1,1.11-4.59,1.81a18.61,18.61,0,0,0-4.23,2.8c-1,.88-2.15,2-3.61,1.87-1.79-.18-2-3.19-2.44-4.51-.38-1.15-1.77-3-1-4.26s2.75-1.69,3.27-3.22c.23-.68-.1-1.61.2-2.22s1.35-.92,1.84-1.39A4.87,4.87,0,0,0,165.55,96.43Zm-13.27,5.68a22.52,22.52,0,0,1-1.68-3.67,18.53,18.53,0,0,1-.67-3,5.16,5.16,0,0,0,.77-.21,7.32,7.32,0,0,0,1.06,1.55,16.7,16.7,0,0,0,3,3.42c.1.07.26,0,.21-.14a12,12,0,0,0-1.65-2.8c-.53-.83-1.09-1.62-1.6-2.45.2-.11.4-.23.59-.36a20.12,20.12,0,0,0,1.66,1.47,9.13,9.13,0,0,1,1.14,1.1,14.18,14.18,0,0,1,.93,1.6.17.17,0,0,0,.3-.1,5.73,5.73,0,0,0-1.46-3,9.62,9.62,0,0,0-1.78-1.77,6.42,6.42,0,0,0,.56-.61c1.54,1.6,3.38,3,5,4.45,1.06,1,2.92,2.49,1.23,4.32a5,5,0,0,1-1.25.77,12.56,12.56,0,0,1-1.3.71,22.29,22.29,0,0,0-2.43,1.25l-.42.29c-1,.75-2.54,1.7-3.85,1.46-1.76-.32-2.23-2-2.47-3.65A46.7,46.7,0,0,1,148,95.5a4.49,4.49,0,0,0,.73.06,11.78,11.78,0,0,0,3.35,6.74C152.19,102.42,152.35,102.25,152.28,102.11Zm3-9.87a5.12,5.12,0,0,0,1.83.49,17.55,17.55,0,0,0,2,.28,15.59,15.59,0,0,0,2,0c.5,0,1.25-.34,1.66,0a1.64,1.64,0,0,1,.37.53,2.63,2.63,0,0,1,.2,1.56,2.69,2.69,0,0,1-.44,1.06,1.86,1.86,0,0,1-1.66.86c-1.2-.07-2.08-1.35-2.9-2.11C157.37,94,156.34,93.09,155.24,92.24Zm4.52-12.13c1.61.06,2.61,2.07,2.86,3.44a12.61,12.61,0,0,0,.57,2.66,16.58,16.58,0,0,0,.94,1.62,2.77,2.77,0,0,1,.45,1.78c-.46,3-9.69.22-9.76.73a4.48,4.48,0,0,0,.05-.64,10.42,10.42,0,0,0,1.14-.07,6.21,6.21,0,0,0,2.49-.78.12.12,0,0,0-.07-.21c-.85,0-1.69.1-2.54.19-.34,0-.7,0-1,0a6.17,6.17,0,0,0-.2-1,13.22,13.22,0,0,0,2.08-.76,11.86,11.86,0,0,0,2.72-1.52c.09-.08,0-.19-.11-.17-1,.19-1.9.62-2.89.83q-1.12.24-2.25.45c-.11-.2-.22-.39-.34-.57A15.48,15.48,0,0,1,155.49,85c.88-.48,1.79-.86,2.71-1.27a.19.19,0,0,0-.08-.37,7.77,7.77,0,0,0-5,1.86,6.28,6.28,0,0,0-.54-.49,11.47,11.47,0,0,0,3.53-2.5C157,81.44,158.38,80.06,159.76,80.11Zm-7.59-3,.16,0a4.71,4.71,0,0,1,3.77.15A6.25,6.25,0,0,1,158,79.06a9.33,9.33,0,0,0-1.81,1.17c-.77.62-1.46,1.33-2.22,2a11,11,0,0,1-2,1.25A19.13,19.13,0,0,0,152.17,77.12Zm.34,12.19a3.76,3.76,0,0,1-5.06,3.51,3.64,3.64,0,0,1-1.95-4.89,3.6,3.6,0,0,1,7,1.38Zm-6,15.22a1.17,1.17,0,0,0-.2.06c-1.29.58-2.95-.46-3.86-1.33A10.31,10.31,0,0,1,141,100.9,20.61,20.61,0,0,0,143.53,99a22.44,22.44,0,0,0,2.82-2.78A16.58,16.58,0,0,0,146.49,104.53Zm-7-27.21c1.06-.84,2.3-1.55,3.43-2.31a9.39,9.39,0,0,1,3.41-1.79c2.46-.38,3.27,1.55,3.63,3.51a31.51,31.51,0,0,1,.09,7l-.47,0h-.14c-.21,0-.42-.08-.64-.11a4.21,4.21,0,0,0-1.42-4.28.11.11,0,0,0-.16.13,10.88,10.88,0,0,1,.8,2.48,7.67,7.67,0,0,1-.08,1.66,5.33,5.33,0,0,0-1.52.35,7.49,7.49,0,0,0-1.37-2.12c-.77-.88-1.38-1.89-2.19-2.74-.11-.11-.26,0-.2.16.61,1.07,1.28,2.06,1.8,3.19a14.77,14.77,0,0,0,1,2,5.52,5.52,0,0,0-.78.56c-.63-.51-1.3-1-1.92-1.51a22.86,22.86,0,0,1-2-2.2.11.11,0,0,0-.18.11,11.39,11.39,0,0,0,1.7,2.54,8.2,8.2,0,0,0,1.72,1.71,5.19,5.19,0,0,0-.52.69c-1.6-1.52-3.54-2.53-4.74-4.51a5.76,5.76,0,0,1-.81-1.83C137.85,78.61,138.63,78,139.54,77.32Zm-4.07,6.61a5.87,5.87,0,0,1,1.42-1.55,11.37,11.37,0,0,0,3.9,4.25,14.65,14.65,0,0,0-6.1,1A6.29,6.29,0,0,1,135.47,83.93Zm-.68,5.88c2.49-1.22,5.34-.86,8-1.31a4.88,4.88,0,0,0-.06.52,9,9,0,0,0-2,.41,8.2,8.2,0,0,0-3.45,2.15c-.08.1,0,.21.14.16a13.87,13.87,0,0,1,4-1.3,12.32,12.32,0,0,1,1.37-.07,6.57,6.57,0,0,0,.33,1.23,25.46,25.46,0,0,1-3.35,1.8c-.24.13-.26.58.07.59a6.12,6.12,0,0,0,3.79-1.35,7,7,0,0,0,.6.83,8.69,8.69,0,0,1-1.15.84,12.8,12.8,0,0,0-2.28,1.3c-.12.11,0,.29.12.33,1.34.44,3-.53,4.09-1.73.18.14.36.27.55.39a36.2,36.2,0,0,1-3.41,3.26c-1.29,1-2.76,2.46-4.34,1-.61-.57-.72-2-1.25-2.81C135.4,94.32,131.35,91.49,134.79,89.81ZM85.38,84.69a2.78,2.78,0,0,1,1.59.14c-1.41.8-2.79,1.66-4.12,2.57a22,22,0,0,0-2.68,2.08c-.39.37-1.19.68-1.07-.23s2-1.71,2.61-2.3A8,8,0,0,1,85.38,84.69ZM78,84.07a3.78,3.78,0,0,1,.25-2,1.14,1.14,0,0,1,.44-.43,3.23,3.23,0,0,1,3.38.51,2.14,2.14,0,0,1-.26,2.77c-.77.62-1.46,1.33-2.22,2a11,11,0,0,1-2,1.25A19.63,19.63,0,0,0,78,84.07ZM100.16,83a52.66,52.66,0,0,1,16.1-1.73,53.35,53.35,0,0,1,8.15,1,26.91,26.91,0,0,1,5.85,1.51,4.59,4.59,0,0,1,1.72.94,4.11,4.11,0,0,1,.41,2.72,23.42,23.42,0,0,1-.95,2.5,5.46,5.46,0,0,0,1.19,4.75,8.66,8.66,0,0,1,1.82,2.24c.4.95.28,2.08.76,3a3.17,3.17,0,0,0,1.86,1.46c1.19.39,2,0,2.65,1.39.29.59.45,1.23.77,1.81a4.49,4.49,0,0,0,3.1,2.17,9.29,9.29,0,0,0,2.65-.21c.86-.06,1,.54,1.61,1.09,2.07,1.82,4,.63,6.16,0a2.82,2.82,0,0,1,1.65-.06c.85.27.84.89,1,1.6.25,1.06.76,2.08,1.07,3.14.43,1.49.81,3,1.14,4.51.59,2.7,1,5.42,1.45,8.15.24,1.58,2,7.53-.46,8.17a2.64,2.64,0,0,1-2.48-1,18.5,18.5,0,0,1-1.5-2.36c-2.54-3.93-8-5.45-9.92-9.73a9.94,9.94,0,0,0-.81-1.75,1.49,1.49,0,0,0-2.81.63c-.11,1.14,1.17,2.83,1.76,3.72a36.71,36.71,0,0,0,6.08,6.56c5.28,4.75,9.58,9.95,9.41,17.47s-4.86,12.86-10.71,17.07c-3.57,2.56-7.69,5.31-9.93,9.15l0-.2c.68-3.74,2.42-6.8,4.12-10.14.17-.34-.33-.61-.59-.4-5.93,4.86-7.49,14-5.93,21.24-1.34-.27-2.81-.26-4.09-.42h-.06c0-.55,0-1.12,0-1.64,0-1.32.32-2.84-.32-4a.81.81,0,0,0-1.38,0c-.65,1.11-.4,2.66-.41,3.91,0,.51-.05,1.06-.06,1.59-1.6,0-3.23.11-4.81.09h-.25c0-.56,0-1.13,0-1.65,0-1.32.32-2.85-.32-4a.81.81,0,0,0-1.38.05c-.65,1.1-.4,2.66-.41,3.9,0,.55-.06,1.14-.06,1.71l-5.06,0c0-.55,0-1.11,0-1.62,0-1.32.32-2.85-.33-4a.8.8,0,0,0-1.37,0c-.65,1.11-.4,2.66-.41,3.91,0,.54-.06,1.12-.06,1.69l-2.94,0h-2.12c0-.55,0-1.11,0-1.62,0-1.32.32-2.85-.33-4a.8.8,0,0,0-1.37.05c-.65,1.11-.4,2.66-.41,3.91,0,.54-.06,1.11-.06,1.68l-5.06,0c0-.54,0-1.1,0-1.61,0-1.32.32-2.85-.33-4a.8.8,0,0,0-1.37.05c-.65,1.1-.4,2.65-.41,3.9,0,.54-.06,1.12-.06,1.68h-.63c-1.44,0-2.93-.08-4.43-.13,0-.52,0-1,0-1.51,0-1.32.32-2.85-.33-4a.8.8,0,0,0-1.37,0c-.65,1.11-.4,2.66-.41,3.91,0,.49-.05,1-.06,1.54-1.15,0-2.3,0-3.42.08,1.48-7.14,0-16-5.78-20.85-.26-.21-.76,0-.59.4.39.78,4,8,3.36,8.2a.66.66,0,0,1-.41-.06c-1.59-.6-2.9-2.53-4.24-3.62s-3-2.29-4.51-3.41c-5.79-4.28-10.43-9.6-10.5-17.2s4.28-12.66,9.62-17.35a36.59,36.59,0,0,0,6.12-6.44c.47-.68,3.94-8,.73-6.78a2.35,2.35,0,0,0-1.14,1.22,36.42,36.42,0,0,1-3.47,5.92c-2.42,3-4.76,2.79-8.18,2.66a5.6,5.6,0,0,1-3.29-1.64,8.77,8.77,0,0,0-3-1.46,2.6,2.6,0,0,1-1.12-.54,2.25,2.25,0,0,1-.46-1.51,4.07,4.07,0,0,1,.34-2.4c.48-1,.85-2,1.25-3a52.64,52.64,0,0,1,2.71-6.15A53.42,53.42,0,0,1,75.88,97.8,51.24,51.24,0,0,1,100.16,83ZM144,176.83c0-.42-.2-1.48-.16-2.11a.8.8,0,0,1,.08-.38c.63-1.18,1.66,1.18,1.77,1.65a16.59,16.59,0,0,1,0,7.77c-.23,0-2-.22-2,0,.08-.41.14-.82.19-1.24A41.15,41.15,0,0,0,144,176.83Zm-47,10.79a4.48,4.48,0,0,0-1.64-1c-.55-.19-1.52-.05-1.92-.49-1.08-1.17,1.55-.66,2-.66h1.66A19,19,0,0,0,97.07,187.62Zm-16.17.56c-.08-.05-.19,0-.16.14a10.22,10.22,0,0,1,.81,2.47,7.15,7.15,0,0,1-.09,1.67,5.69,5.69,0,0,0-1.51.34,8.29,8.29,0,0,0-1.37-2.12c-.78-.87-1.39-1.89-2.19-2.74-.11-.11-.27,0-.2.17.61,1.07,1.28,2.06,1.8,3.18a15.39,15.39,0,0,0,1,2,6,6,0,0,0-.77.55c-.64-.51-1.3-1-1.92-1.51a20.6,20.6,0,0,1-2-2.2c-.07-.08-.22,0-.18.12a11.87,11.87,0,0,0,1.7,2.54,8.4,8.4,0,0,0,1.72,1.7,5.67,5.67,0,0,0-.52.69c-1.6-1.52-3.54-2.53-4.74-4.51a5.18,5.18,0,0,1-.81-1.83c-.19-1.31.58-1.88,1.49-2.61s1.94-1.34,2.92-2l.06,0,.06,0,.39-.25a9.27,9.27,0,0,1,3.41-1.8c2.47-.38,3.27,1.55,3.63,3.51a31.61,31.61,0,0,1,.1,7,3.75,3.75,0,0,0-.47-.05H83a4.35,4.35,0,0,0-.63-.1A4.24,4.24,0,0,0,80.9,188.18Zm-6.63,7.33a14.63,14.63,0,0,0-6.1,1,6.37,6.37,0,0,1,.77-3.71,6,6,0,0,1,1.42-1.54A11.45,11.45,0,0,0,74.27,195.51Zm7.32-17.16a1.5,1.5,0,0,1-.44,1.42l-.12.1c-.44.34-2.18.81-2.63.4s.69-2.06,1-2.52.9-1.4,1.56-1.53C82,176,81.55,177.75,81.59,178.35Zm3.2-6.16c.79.13,1.59,1.58,2,2.19a20.44,20.44,0,0,1,1.85,3.08.71.71,0,0,0,.1.14c.34.41-.13,2.59-.2,3.12-.12.89-.25,2.52-1.45,2.6-1.4.1-2.36-1.16-2.8-2.32a10.88,10.88,0,0,1-.31-2.9,23.73,23.73,0,0,1-.14-2.54C83.88,174.77,83.37,172,84.79,172.19ZM85.65,186l.16,0a4.75,4.75,0,0,1,3.77.15,6.33,6.33,0,0,1,1.86,1.82,9.53,9.53,0,0,0-1.81,1.18c-.77.62-1.46,1.33-2.21,2a11.38,11.38,0,0,1-2,1.25A19.39,19.39,0,0,0,85.65,186ZM59.53,152.31c1.07-1.07,1.43,1.44,1.52,2.13a31.33,31.33,0,0,0,.75,4.31c.07.25.51.26.54,0a32,32,0,0,0-.05-4.27c0-.78,0-1.64-.12-2.45a7.81,7.81,0,0,0,1.09-.23c.22.86.62,1.7.89,2.5a18.38,18.38,0,0,0,1.63,4.09.27.27,0,0,0,.5-.16,17.18,17.18,0,0,0-1.1-4,11.48,11.48,0,0,1-.61-1.91c-.09-.68.83-2,1.53-1.3.28.27.31,1.22.44,1.61.23.65.48,1.29.77,1.92a23.41,23.41,0,0,0,4.86,6.92,16.27,16.27,0,0,0-3.1,1c-1.84.78-4,3.09-6.1,3.69a24.23,24.23,0,0,1-2.71-.57c-1.48-1.51-1-5.06-1-6.81,0-1.15.07-2.3.08-3.45,0-.79-.49-2.16.08-2.84A.67.67,0,0,1,59.53,152.31ZM57,161.09a7.44,7.44,0,0,1,0,1.63c-.09.39-.41.56-.75.84a1.86,1.86,0,0,1-1.88.31,4.63,4.63,0,0,1-3.22-3.13c-.52-1.72,1.11-2.63,2.06-3.82A24.72,24.72,0,0,0,57,151l.33.2C56.46,154.18,57,158.1,57,161.09Zm-5.41,3.6c-1.37.12-2.78.34-4.11.44a15.73,15.73,0,0,1,.42-2.5c.13-.68-.08-1.73.52-2.25.4-.33.68-.14.88.2a7.49,7.49,0,0,1,.45,1.18A11,11,0,0,0,51.56,164.69Zm4-21.12v0a6.24,6.24,0,0,1,4.2-5.37,7.11,7.11,0,0,1,6.59,1.53,20.14,20.14,0,0,0-1,7.16,4.38,4.38,0,0,0,0,.51c-1.71,1.47-3.48,2.63-5.93,1.89A5.83,5.83,0,0,1,55.61,143.57ZM65.92,126.2a4.39,4.39,0,0,1,3.63,1.2,16.93,16.93,0,0,0-2.81,3.76c-.36.58-.73,1.15-1.08,1.74.08-1.47.15-2.94.23-4.41A21.76,21.76,0,0,0,65.92,126.2Zm8.23,2.44c-.49.42-1,.85-1.45,1.29a24,24,0,0,0-4.31,5.32c-.33.56-.68,2-1.41,2.12s-1.2-.81-1-1.43a12.7,12.7,0,0,1,1.5-2.4,30.56,30.56,0,0,1,2.17-3C70.62,129.37,72.61,127.13,74.15,128.64ZM67,95.11c.44-.06.91,0,1.37-.07a5.83,5.83,0,0,0,.34,1.24,4.46,4.46,0,0,1-2.4,1.09,1.67,1.67,0,0,1-.8-.24c-.28-.16-.56-.34-.85-.5s-.42-.15-.48-.32C63.91,95.55,66.56,95.18,67,95.11ZM63.87,95c-.6.41-1.07.27-1.77,0-.36-.15-.86-.19-.71-.67l0-.07c.26-.57,1.4-.7,1.91-.82a13.84,13.84,0,0,1,5.09-.23.76.76,0,0,1-.09.44c-.12.11-.45.08-.61.11a14.51,14.51,0,0,0-1.75.29A7.69,7.69,0,0,0,63.87,95ZM68.21,98a9.13,9.13,0,0,0,1-.64,6,6,0,0,0,.6.83c-.44.36-1.12,1.15-1.72.66-.1-.09-.35-.3-.34-.45S68.06,98,68.21,98Zm9.15-6.21c-.38.35-.73.76-1.11,1.1s-.71-.06-1-.29a1.8,1.8,0,0,0-1.14-.36,1.87,1.87,0,0,0-1.69,1.27A1.68,1.68,0,0,0,72.55,95c.19.28.56.49.58.86s-.61.9-.87,1.21a3.65,3.65,0,0,1-1.15-4.44,4,4,0,0,1,4.12-2.38A3.48,3.48,0,0,1,77.36,91.74ZM65.15,82c1.06-.84,2.3-1.55,3.43-2.3A9.27,9.27,0,0,1,72,77.89c2.46-.38,3.27,1.55,3.63,3.51a21.72,21.72,0,0,1,.18,5c0,.42,0,.84-.06,1.26,0,.24,0,.42-.19.58a.73.73,0,0,1-1-.25c-.08-.16,0-.43,0-.61a4.94,4.94,0,0,0-.15-1.33A3.62,3.62,0,0,0,73,84a.12.12,0,0,0-.16.14,10.65,10.65,0,0,1,.8,2.47c0,.42.15,1.21-.16,1.54a1.09,1.09,0,0,1-1,.23,1.62,1.62,0,0,1-.72-.46c-.4-.42-.66-1-1-1.42s-1.82-3-2.49-2.65a10.47,10.47,0,0,0,1.42,3.23,15.89,15.89,0,0,0,1,1.48c.24.32.66.91-.12.86s-1.5-.83-2.05-1.3a21.63,21.63,0,0,1-2-2.2.12.12,0,0,0-.19.12A12.25,12.25,0,0,0,68,88.55a8.58,8.58,0,0,0,.85,1c.19.19.67.41.7.69a.4.4,0,0,1-.21.37.49.49,0,0,1-.41,0,5.12,5.12,0,0,1-1.23-.9c-.4-.31-.8-.62-1.18-1a9.37,9.37,0,0,1-2.06-2.29,5.35,5.35,0,0,1-.8-1.83C63.46,83.29,64.24,82.72,65.15,82ZM61.08,88.6a5.84,5.84,0,0,1,1.42-1.54,11.34,11.34,0,0,0,3.9,4.24,14.66,14.66,0,0,0-6.1,1A6.32,6.32,0,0,1,61.08,88.6Zm-3.62,22.27c-1.58-1.15-3-2.17-3.38-2.36a33.84,33.84,0,0,0-10.78-3.8c-4.93-.69-10.49.09-14.88-1.47-3.8-1.36-6.74-4.65-5.62-8.88a8,8,0,0,1,4.47-5.17c2.46-.9,4.27.52,6.41,1.39.92.38,3.92,2,4.53.63s-2.38-2.92-3.09-3.74A8.42,8.42,0,0,1,33,82.6c-.22-4.06,2.53-7.19,6.21-8.43,3.91-1.33,7,1.23,8.91,4.65,1.52,2.75,2.22,5.87,3.34,8.81a17.49,17.49,0,0,0,6.23,7.91c1.83,1.3,3.76,2.44,5.71,3.56,1.26.73,3.09,1.4,3.63,2.9.86,2.42-1.4,5.18-2.37,7.19-.58,1.2-1.16,3.64-2.54,4.08C60.35,113.85,58.71,111.79,57.46,110.87ZM48.21,128.6a.75.75,0,0,1,.07-.12c.72-1.28,2.72-1,4-1.11,2.63-.26,4.53-1.85,6.85-3,1.87-.88,4.05-1.2,4.54,1.35a24,24,0,0,1-.09,5.42,18.38,18.38,0,0,1-.19,3.72c-.18.65-.86,1.08-1.27.26a2.32,2.32,0,0,1-.19-.94,30.42,30.42,0,0,0-.47-3.82c-.93,1.2-.64,3-1,4.37-.18.81-.87,1.37-1.13.27a18.4,18.4,0,0,0-.54-1.93,11.53,11.53,0,0,0-1.57-3.63.17.17,0,0,0-.3,0c-.33,1.74.34,3.83.59,5.57a1.67,1.67,0,0,1,0,.94c-.61,1.31-1.86-.42-2.26-1a22.68,22.68,0,0,0-2.14-3,.27.27,0,0,0-.44.24,14,14,0,0,0,1.51,3.41c.28.61,1.11,1.73.82,2.39-.85-.14-1.51-1.48-2.08-2.08-.75-.8-1.54-1.56-2.31-2.34C49.34,132.43,47.19,130.65,48.21,128.6Zm-5.43,6.78a2.58,2.58,0,0,1,.43-.7,3.63,3.63,0,0,1,5.2-.08c1,1,1.92,2,2.91,3,.71.71,1.91,1.29,2.33,2.24a1.22,1.22,0,0,1-1.38,1.7,19.91,19.91,0,0,1-2.16-.65c-.93-.25-1.85-.5-2.78-.72a10.61,10.61,0,0,1-3.42-1A3,3,0,0,1,42.78,135.38ZM48,142.83l2.55.74c.6.16,1.56.22,2,.7a5.23,5.23,0,0,1-1.91.22,26.12,26.12,0,0,0-4.4.58.18.18,0,0,0,0,.34,24.39,24.39,0,0,0,4.09.37,21.9,21.9,0,0,0,2.92.06c0,.11,0,.21.08.32a13.51,13.51,0,0,0-2.77,1.23c-1.34.69-2.72,1.31-4,2-.29.15,0,.55.23.48,1.6-.36,3.2-.81,4.79-1.25a12.73,12.73,0,0,0,2.49-.81.56.56,0,0,1,.05.08,24.72,24.72,0,0,1-2,2.28,18.74,18.74,0,0,1-2.72,2.32c-.26.17,0,.65.25.51a14.66,14.66,0,0,0,1.79-.74A11.59,11.59,0,0,0,53.24,151c.49-.42,1.24-1.56,1.92-1.52,0,.6-.55,1-.87,1.49-.49.71-.93,1.44-1.4,2.16a15,15,0,0,1-3.27,3.9c-2.29,1.79-6.33,1.13-7.09-2a6.37,6.37,0,0,1,.09-2.57,1.22,1.22,0,0,0-.13-1.06A20.93,20.93,0,0,1,40,147.87a5.16,5.16,0,0,1-.64-1.77,4.92,4.92,0,0,1,0-1.87,3.47,3.47,0,0,1,1.33-2.08C42.94,140.63,45.8,142.2,48,142.83Zm-5.92,16.35,0,.08c-.19.44-.85.38-1.23.37a3.13,3.13,0,0,1-1.66-.83c-.81-.54-1.67-1-2.5-1.5-.28-.17-1.11-.57-.82-1s1.87-.55,2.3-.67,1.28-.45,1.85-.14.72,1.41,1.06,2C41.33,157.88,42.24,158.62,42.11,159.18Zm-2.53-22.34c.92.52,1.87,1.91.9,2.65-.79.59-1.85-.6-2-1.28C38.09,136.58,38.82,136.41,39.58,136.84Zm-6-.53c2.06.06,2.7,1.45,3.47,3.07.52,1.08,1.15,2.89-.71,2.85-1.5,0-3-2.1-3.81-3.09-.46-.53-1.46-1.29-1.58-2C30.76,135.8,32.62,136.29,33.6,136.31Zm-7.81.29a3.65,3.65,0,0,1,.68-.08c1.05,0,1.32.74,2.06,1.77s1.56,1.82,2.33,2.73l.2.25c-.37-.45-2.14-.34-2.76-.59a10.12,10.12,0,0,1-3.16-2.17C24,137.38,24.43,136.89,25.79,136.6Zm-7.43,1.46a.56.56,0,0,1,.28-.29,3.4,3.4,0,0,1,2.78-.32c.48.19,1.83,1.19,1.15,1.8-.32.29-1.25.07-1.61,0S18.14,138.7,18.36,138.06Zm2,6.51c-1-.35-1.73-1.43-2.51-2.1-.29-.26-1.76-1.17-1.11-1.72.31-.25,2.71.7,3.13.81,1.05.27,4.64.39,3.76,2A3.35,3.35,0,0,1,20.4,144.57Zm7.07,3.63a6.73,6.73,0,0,1-2.8-1.14l-.56-.26a1.54,1.54,0,0,1-.65-.42c-.47-.88,1.2-1.1,1.77-1.32,1.46-.58,3.05-1.41,4.67-1.06s2.06,1,.84,2.25C30.05,146.94,28.55,148.26,27.47,148.2Zm3.29.94v0c0-.7,1.4-1.19,1.89-1.5A11.71,11.71,0,0,1,36,145.82c.88-.21,1,0,1.3.83.33,1,1.64,3,.8,3.85-.53.54-1.88.44-2.54.43C34.47,150.9,30.91,150.66,30.76,149.14Zm-2.7,10.6c1-.58,1.9-1.15,2.9-1.65.32-.16.66-.36,1-.52a2.72,2.72,0,0,1,1.67-.29,2.3,2.3,0,0,1,1.1.69,16.72,16.72,0,0,0,1.42.95c.46.3,1.17.57.67,1.15a2.12,2.12,0,0,1-1.28.43,24.3,24.3,0,0,1-2.83.05H29.61a14.77,14.77,0,0,1-1.63,0C26.93,160.45,27.49,160.08,28.06,159.74Zm5.7,4.43c-.5.58-.8,1-1.31,1.22a2.08,2.08,0,0,1-1.06.06,13.54,13.54,0,0,1-2.54-.78c-.83-.28-1.64-.59-2.44-.94-.55-.24-1.54-.42-1.84-.95.45-.39,2.16.17,2.76.22,1,.09,2,.11,3,.1s2.14-.24,3.15-.15S34.27,163.58,33.76,164.17Zm7.19-.63a5.18,5.18,0,0,1-1.38,2.29,1.72,1.72,0,0,1-.38.2,7.12,7.12,0,0,1-2.87.11c-.41,0-1,.1-1.11-.4s.3-.72.51-1a9.64,9.64,0,0,1,1.83-1.94,5.11,5.11,0,0,1,2.52-.58,1.26,1.26,0,0,1,1,.32C41.4,163,41.13,163.17,41,163.54Zm.91,2.44s0,0,0,0c-.15-.54.61-1.61.84-2,.64-1.18,1.45-2.73,3-2.71.65,0,.79.28.73.87-.14,1.32-.39,3.11-1.64,3.83C44.23,166.22,42.26,166.89,41.86,166Zm24.08,28.79c0,.25-.08.5-.13.74a13,13,0,0,1-1.18,3.13c-.33.65-.53,1.63-1.27,1.9-1.3.47-3-.51-4.08-1.11A8.94,8.94,0,0,1,54.89,193a10,10,0,0,1,1.77-7.35c1.52-2.13,3.68-3.16,5.77-4.59.79-.54,0-1.54-.69-1.51-3.06.13-5.9,2.63-7.57,5a12.37,12.37,0,0,0-.81,1.35,21.91,21.91,0,0,1-2.56-.75,10.69,10.69,0,0,1-3.32-2.28,9.17,9.17,0,0,1-2.31-8.74,9.32,9.32,0,0,1,5.84-6.6,10.16,10.16,0,0,1,4.27-.56c1.33.11,2.52.75,3.81.85a13.15,13.15,0,0,0,4.85,1.27,15.29,15.29,0,0,0,8.87-1.83A3.93,3.93,0,0,0,74,166.17a13.76,13.76,0,0,1,1.34-1.38c0,.25,1.41,1.15,1.63,1.34.48.39,1,.66,1.49,1,1.4,1.1,3.87,2.71,2.3,4.59a50.89,50.89,0,0,0-4.17,5.35,12.8,12.8,0,0,0-.85,2.18,9.72,9.72,0,0,1-3,4.11c-.69.53-1.45,1-2.12,1.52a5.13,5.13,0,0,0-1.41,1.88,17.19,17.19,0,0,0-.44,2,5.73,5.73,0,0,1-1.07,1.61,9.17,9.17,0,0,0-1,2A8,8,0,0,0,65.94,194.77Zm5.32,12.93c-.6-.58-.72-2-1.24-2.82-1.08-1.58-4.74-4.72-1.75-6.19,2.48-1.22,5.33-.86,8-1.3a4.35,4.35,0,0,0-.06.52,8.36,8.36,0,0,0-2,.41,8,8,0,0,0-3.45,2.15c-.09.09,0,.21.13.16a14.06,14.06,0,0,1,4-1.31c.44-.06.91,0,1.37-.07a6.47,6.47,0,0,0,.33,1.24,26.11,26.11,0,0,1-3.35,1.8c-.24.12-.27.57.07.59a6.17,6.17,0,0,0,3.79-1.36,7,7,0,0,0,.6.83,8.76,8.76,0,0,1-1.15.85,13.4,13.4,0,0,0-2.28,1.29c-.13.12,0,.29.12.33,1.34.44,3.05-.52,4.09-1.72a5.3,5.3,0,0,0,.54.39,36,36,0,0,1-3.4,3.25C74.31,207.78,72.85,209.21,71.26,207.7Zm8.51,5.78c-1.3.57-3-.47-3.86-1.33a10.23,10.23,0,0,1-1.46-2.37A18.1,18.1,0,0,0,77,207.85a21.71,21.71,0,0,0,2.82-2.77,16.59,16.59,0,0,0,.14,8.34A.7.7,0,0,0,79.77,213.48ZM79,196.82a3.61,3.61,0,0,1,7,1.37,3.77,3.77,0,0,1-5.07,3.51A3.63,3.63,0,0,1,79,196.82Zm14.37,14a6.6,6.6,0,0,1-1.62,1c-1.24.7-2.49,1.38-3.74,2.06s-2.51,1.72-3.89,1.47c-1.76-.32-2.23-2.06-2.47-3.66a45.38,45.38,0,0,1-.16-7.28,6,6,0,0,0,.73.05,11.78,11.78,0,0,0,3.35,6.74c.13.12.29-.05.22-.18a23.06,23.06,0,0,1-1.69-3.68,19.39,19.39,0,0,1-.67-3,6.2,6.2,0,0,0,.77-.2,8.33,8.33,0,0,0,1.06,1.55,17,17,0,0,0,3,3.41c.1.07.25,0,.21-.13a12.63,12.63,0,0,0-1.65-2.81c-.54-.82-1.1-1.62-1.6-2.45.2-.11.39-.23.58-.36a21.64,21.64,0,0,0,1.66,1.47,9.27,9.27,0,0,1,1.15,1.11,15.72,15.72,0,0,1,.93,1.59c.08.14.3.05.29-.1a5.58,5.58,0,0,0-1.46-3,9,9,0,0,0-1.78-1.76,8.37,8.37,0,0,0,.57-.62c1.54,1.61,3.38,3,5,4.46C93.17,207.49,95,209,93.34,210.84Zm3.44-6.53a4.77,4.77,0,0,1-2,2.32,12.2,12.2,0,0,0-1.33-1.36c-1.51-1.36-3-2.88-4.7-4.14a15.89,15.89,0,0,0,8.13.5A6.56,6.56,0,0,1,96.78,204.31Zm.12-4.71c-3,.53-5.72-.14-8.6-.37,0-.21,0-.43,0-.64a10.37,10.37,0,0,0,1.14-.08,6,6,0,0,0,2.49-.78.12.12,0,0,0-.07-.21c-.85,0-1.7.11-2.54.19-.34,0-.7,0-1.06,0a5.16,5.16,0,0,0-.19-.95,14.74,14.74,0,0,0,2.08-.76,11.86,11.86,0,0,0,2.72-1.52c.09-.08,0-.2-.11-.18-1,.2-1.9.62-2.89.83-.75.17-1.5.31-2.26.45q-.15-.28-.33-.57A16.34,16.34,0,0,1,89,193.93c.88-.48,1.8-.86,2.71-1.27a.2.2,0,0,0-.08-.38,7.82,7.82,0,0,0-5,1.86,5.19,5.19,0,0,0-.55-.49,11.65,11.65,0,0,0,3.54-2.49,7.92,7.92,0,0,1,3.67-2.26c2.5-.42,3.12,1.69,3.34,3.69a8.38,8.38,0,0,0,.86,3.23C98.15,197.14,99,199.21,96.9,199.6ZM126,201.43a30.91,30.91,0,0,1-14.16,2.71,31.54,31.54,0,0,1-7.41-1.17c-1.17-.33-2.71-.26-3.67-1.11-1.36-1.2-.09-3.13-.39-4.7a24.51,24.51,0,0,0-1-3.21c-.39-1.1-.53-2.33-.82-3.48l.15-.08c.86-.67.71-1.63.69-2.62a22.19,22.19,0,0,0-.08-2.31h1l4.23,0a22.91,22.91,0,0,0-.11,2.34c0,1-.17,1.93.66,2.6a.81.81,0,0,0,1,0c.85-.67.7-1.62.69-2.62,0-.77,0-1.55-.09-2.32l5.2,0c-.1.77-.08,1.57-.11,2.34,0,1-.17,1.93.66,2.61a.81.81,0,0,0,1,0c.86-.67.7-1.63.69-2.62a22.38,22.38,0,0,0-.09-2.32l5.2.05c-.09.76-.08,1.55-.1,2.32,0,1-.17,1.93.66,2.6a.8.8,0,0,0,1,0c.86-.67.71-1.62.69-2.62a21.91,21.91,0,0,0-.08-2.29l5.19.06c-.09.75-.08,1.53-.1,2.28,0,1-.17,1.93.66,2.61a.81.81,0,0,0,1,0c.86-.66.7-1.62.69-2.61,0-.75,0-1.51-.08-2.26,2.52,0,5.05,0,7.57.06.55,0,2.89-.3,2.87-1a1.15,1.15,0,0,0,.1-.85,25.07,25.07,0,0,1-.65-6,.67.67,0,0,0,.09-.14,19.76,19.76,0,0,1,1.67-2.75c.38-.53,1.38-2,1.59-.63a15.47,15.47,0,0,1-.15,2c0,.78,0,1.55-.07,2.33a31.84,31.84,0,0,1-1.6,9.13,17.13,17.13,0,0,1-3.43,5.64A31.49,31.49,0,0,1,126,201.43Zm10.55-2.17a1.88,1.88,0,0,1-2-.19l.11-.11c1.39-1.38,2.91-2.61,4.19-4.13.36-.44.69-.92,1.08-1.33.38.23,1,.7,1,1.16s-.7,1.27-1,1.66A12.35,12.35,0,0,1,136.58,199.26Zm5.59,3.75c.08.48.33,1.06,0,1.44l-.15.12a1.33,1.33,0,0,1-.83.16,4.68,4.68,0,0,1-2.62-1.35c-.67-.63-1.44-1.68-.9-2.58a8.16,8.16,0,0,1,2-1.71,23.14,23.14,0,0,0,2.82-2.78,18.16,18.16,0,0,0-.46,4.41A14.65,14.65,0,0,0,142.17,203Zm-.62-12a13.28,13.28,0,0,0,1.41-4l.15-.71a3.7,3.7,0,0,1,2.59-.61,4,4,0,0,1,2.9,3.76,3.76,3.76,0,0,1-5.07,3.5A3.53,3.53,0,0,1,141.55,191Zm7.17-13.31a1.37,1.37,0,0,1,1-.38,4.3,4.3,0,0,1,3.12,1.1c.92.85.41,1.15-.34,1.66-.9.61-1.61,1.55-2.45,2.25a6,6,0,0,1-1.93,1.19c0-.93.36-1.95.43-2.9S148.12,178.31,148.72,177.68Zm5.79,11.07c-.85,0-1.69.11-2.54.2-.34,0-.7,0-1.05,0a7.6,7.6,0,0,0-.19-1,13.1,13.1,0,0,0,2.07-.76,11.86,11.86,0,0,0,2.72-1.52c.09-.08,0-.19-.1-.17-1,.19-1.91.61-2.89.83-.75.16-1.51.3-2.26.45a5.3,5.3,0,0,0-.33-.57,15.35,15.35,0,0,1,1.63-1.14c.88-.48,1.8-.86,2.71-1.27a.19.19,0,0,0-.08-.37,7.74,7.74,0,0,0-5,1.86,6.23,6.23,0,0,0-.55-.49,11.86,11.86,0,0,0,3.54-2.5,7.89,7.89,0,0,1,3.66-2.26c2.51-.42,3.12,1.7,3.34,3.7a16.36,16.36,0,0,0,.45,2.19,8.32,8.32,0,0,0,.45,1.73,2.5,2.5,0,0,1,.11,1.88c-.59,1.74-2.28,1.45-3.78,1.39-.46,0-5.52-.56-5.52-.56a4.48,4.48,0,0,0,0-.64,10.73,10.73,0,0,0,1.15-.08,6,6,0,0,0,2.48-.77A.12.12,0,0,0,154.51,188.75Zm1.43,13.33a7.07,7.07,0,0,1-1.62,1c-1.24.7-2.49,1.37-3.73,2.06s-2.52,1.71-3.9,1.46c-1.76-.32-2.22-2.06-2.46-3.65a45.53,45.53,0,0,1-.17-7.29,6.13,6.13,0,0,0,.74,0,11.69,11.69,0,0,0,3.35,6.74c.12.12.28,0,.21-.18a23.92,23.92,0,0,1-1.68-3.68,19.27,19.27,0,0,1-.67-3,6.73,6.73,0,0,0,.77-.21,7.59,7.59,0,0,0,1.06,1.55,17.06,17.06,0,0,0,3,3.42.13.13,0,0,0,.21-.14,12.63,12.63,0,0,0-1.65-2.81c-.54-.82-1.1-1.61-1.61-2.45a5.08,5.08,0,0,0,.59-.35A19.73,19.73,0,0,0,150,196a9.21,9.21,0,0,1,1.14,1.11,15.81,15.81,0,0,1,.94,1.59.16.16,0,0,0,.29-.09,5.62,5.62,0,0,0-1.46-2.95,9.32,9.32,0,0,0-1.78-1.77,5.5,5.5,0,0,0,.56-.62c1.54,1.61,3.39,3,5,4.46C155.77,198.72,157.63,200.24,155.94,202.08Zm1.65-4.5c-.7.12-1.12-.67-1.57-1.08-1.51-1.36-3.05-2.88-4.69-4.14a16.23,16.23,0,0,0,6,.8c.81,0,1.7-.53,2.1.4a3,3,0,0,1-.07,2C159.14,196.25,158.42,197.44,157.59,197.58Zm24.56-21.37a9,9,0,0,1,.45,5.43,8.34,8.34,0,0,1-2.92,4.79,8.59,8.59,0,0,1-5.93,1.1c-2.13-.34-3.42-2.18-5.13-3.32a8.9,8.9,0,0,0-5.41-1.73c-.17,0-.36.08-.41.24-.12.38,1.27,1.4,1.59,1.69a21.9,21.9,0,0,0,2.07,1.51,12,12,0,0,1,3.56,3.4,9.26,9.26,0,0,1,.81,7.52,7.72,7.72,0,0,1-5,5,9.89,9.89,0,0,1-6.9-.38c.62-.91.1-2.17.68-3.08.23-.37.67-.53.95-.86a3.36,3.36,0,0,0,.69-1.48,12.75,12.75,0,0,0,0-4.65,6,6,0,0,0,1.22-1.52c.71-1.45-.3-3.24-.66-4.65-.25-1-.33-1.93-.51-2.89a6,6,0,0,0-1.08-2.7c-.8-1-2.14-1.24-3.29-1.63a9.83,9.83,0,0,1-3.59-2.09,4.62,4.62,0,0,0-3.21-.85c-.2,0-2.32.33-2.24.6a9.18,9.18,0,0,0-.86-2.07c-.62-1-2.85-1.94-2-3.4a7.12,7.12,0,0,1,2-1.82c1-.75,2-1.48,3-2.21a4,4,0,0,1,1.37-.88c1.21-.29,1.69.33,2.46,1a17.59,17.59,0,0,0,8.58,4.38c3.78.75,7.59-.31,11.39-.1,1.73.09,4.07.44,5.43,1.63A11,11,0,0,1,182.15,176.21Zm.75-9.26c-.58,1.83-1.81,2.28-3.23,2.59-2.81-1.55-6.15-1.78-9.63-1.37-1.34.15-3,.39-3.83-.95a10,10,0,0,1-.82-3.26,7.32,7.32,0,0,1-.13-3.8c.21-.66.38-.8.69-.17s.59,1.29.87,1.93a17.52,17.52,0,0,0,2.14,3.8c.19.23.68.16.62-.21a17.26,17.26,0,0,0-1.42-4.17c-.19-.43-1.25-2-.49-2.29s.9,1,1.05,1.43a13.13,13.13,0,0,0,1.16,2.27,10.46,10.46,0,0,0,3.46,3.54c.34.2.7-.26.49-.57-.73-1.08-1.64-2-2.44-3.05a13.13,13.13,0,0,1-1.39-2c-.14-.26-.55-1.28-.11-1.4s.78.49,1,.71a4.65,4.65,0,0,0,1.05,1,17.62,17.62,0,0,0,3.68,2c.14.05.33.09.41,0s0-.3-.14-.41c-.95-1-2.07-1.74-3-2.67a8.77,8.77,0,0,1-1.87-2.16c-.2-.41-.38-1.21.08-1.57.89-.7,3.29,1.37,4,1.82,1.76,1.12,3.6,2.15,5.29,3.37S183.65,164.57,182.9,167Zm5.34-6.85c-.36.25-.94.06-1.34,0a8.52,8.52,0,0,1-2.67-.28.86.86,0,0,1-.44-.31.77.77,0,0,1-.1-.51,9.09,9.09,0,0,1,.17-2c.29-1,1.14-.82,2-.41a5.06,5.06,0,0,1,1.81,1.81C187.94,158.84,189,159.55,188.24,160.1Zm2.75-.25a7.45,7.45,0,0,1-1.65-2c-.64-.85-.07-.93.73-.78a4.23,4.23,0,0,1,2.3.83c.34.34,1.17,1.32,1.13,1.79C193.4,160.63,191.47,160.14,191,159.85Zm2-4.46c-.24-.33.22-.7.43-.88a4.48,4.48,0,0,1,1.33-1h.06c.61-.17,1,.24,1.56.51s3.64,1.63,2.84,2.24c-.18.15-.78,0-1-.07-1.34-.2-2.68-.42-4-.59C193.94,155.52,193.19,155.65,193,155.39Zm3.72,4.16a2.37,2.37,0,0,1-2-.9c-1-1.08.3-.8,1.07-.68l2.21.33c.48.07,1,.17,1.44.26A19.72,19.72,0,0,1,196.74,159.55Z"/><text class="cls-8" transform="matrix(0.93, -0.36, 0.36, 0.93, 54.78, 54.24)">A</text><text class="cls-8" transform="matrix(0.98, -0.21, 0.21, 0.98, 77.69, 45.44)">r</text><text class="cls-8" transform="translate(97.22 41.06) rotate(-3.52)">e</text><text class="cls-8" transform="matrix(1, 0.1, -0.1, 1, 119.37, 39.56)">o</text><text class="cls-8" transform="translate(142.25 41.96) rotate(13.43)"></text><text class="cls-8" transform="translate(157.42 45.3) rotate(21.03)">s</text></svg>